<svg width="201" height="64" viewBox="0 0 201 64" fill="none" xmlns="http://www.w3.org/2000/svg">
<path fill-rule="evenodd" clip-rule="evenodd" d="M43.2501 20.0072C44.2629 20.8346 44.9866 21.8201 45.8267 22.8257C45.8385 22.8412 45.8731 22.8857 45.8849 22.9012L46.0076 23.0439C46.1122 23.1612 46.2795 23.3958 46.4559 23.3958H62.7749C63.1441 23.3958 63.1086 23.2967 63.0159 22.9639C61.8167 18.6325 58.1453 12.1 54.5922 9.2642C46.134 2.47344 41.0534 0.22773 30.2132 0.492305C-2.6723 5.14828 -10.2795 44.8845 17.7263 60.5181C19.9247 61.6001 22.1777 62.4692 24.4625 63.1002L32.6689 26.6598H29.5385C28.9767 26.6598 21.1094 41.2069 20.3466 42.5788H19.8811C19.8475 42.4525 18.9337 41.156 18.831 41.0314C9.08354 29.181 25.5235 7.36308 43.2519 20.0081L43.2501 20.0072ZM41.1371 63.173C43.6446 62.4574 46.1286 61.39 48.5588 59.9344C57.6717 54.4784 62.9159 46.1947 64.3469 35.358C64.537 34.0433 64.5279 29.9074 64.2169 28.6145C64.1305 28.2563 64.2324 27.8581 63.7078 27.8581H48.6543C48.1742 27.8581 48.5116 28.8837 48.5725 29.1392C49.6244 33.5715 48.437 37.3819 46.2277 41.2841C45.9494 41.7215 45.5203 42.1642 45.4467 42.3024C45.3657 42.4552 45.3621 42.4888 45.2575 42.6461C44.9284 42.4888 44.9775 42.7107 44.7702 42.3343C44.5729 41.9897 36.1465 26.6607 35.7992 26.6607H32.6689L41.138 63.1739L41.1371 63.173Z" fill="#5E6737"/>
<mask id="mask0_150_622" style="mask-type:luminance" maskUnits="userSpaceOnUse" x="0" y="0" width="65" height="64">
<path d="M43.2501 20.0082C44.2629 20.8356 44.9866 21.8211 45.8267 22.8267C45.8385 22.8421 45.8731 22.8867 45.8849 22.9022L46.0076 23.0449C46.1122 23.1622 46.2795 23.3968 46.4559 23.3968H62.7749C63.1441 23.3968 63.1086 23.2977 63.0159 22.9649C61.8167 18.6335 58.1453 12.1009 54.5922 9.26517C46.134 2.47441 41.0534 0.228706 30.2132 0.493282C-2.6723 5.14926 -10.2795 44.8855 17.7263 60.5191C19.9247 61.601 22.1777 62.4702 24.4625 63.1012L32.6689 26.6608H29.5385C28.9767 26.6608 21.1094 41.2078 20.3466 42.5798H19.8811C19.8475 42.4534 18.9337 41.1569 18.831 41.0324C9.08354 29.1819 25.5235 7.36405 43.2519 20.0091L43.2501 20.0082ZM41.1371 63.1739C43.6446 62.4584 46.1286 61.391 48.5588 59.9354C57.6717 54.4793 62.9159 46.1957 64.3469 35.359C64.537 34.0443 64.5279 29.9084 64.2169 28.6155C64.1305 28.2573 64.2324 27.8591 63.7078 27.8591H48.6543C48.1742 27.8591 48.5116 28.8846 48.5725 29.1401C49.6244 33.5724 48.437 37.3829 46.2277 41.2851C45.9494 41.7225 45.5203 42.1652 45.4467 42.3034C45.3657 42.4562 45.3621 42.4898 45.2575 42.6471C44.9284 42.4898 44.9775 42.7117 44.7702 42.3352C44.5729 41.9907 36.1465 26.6617 35.7992 26.6617H32.6689L41.138 63.1749L41.1371 63.1739Z" fill="white"/>
</mask>
<g mask="url(#mask0_150_622)">
<path fill-rule="evenodd" clip-rule="evenodd" d="M3.47384 -57.9875C40.5925 -77.0197 79.715 -74.8358 90.8562 -53.107C101.997 -31.3791 80.9379 1.66459 43.8192 20.6967C6.70057 39.7298 -32.422 37.5441 -43.5623 15.8162C-54.7035 -5.91263 -33.6448 -38.9554 3.47475 -57.9885L3.47384 -57.9875Z" fill="#FEFEFE" fill-opacity="0.501961"/>
</g>
<path fill-rule="evenodd" clip-rule="evenodd" d="M43.2501 20.0072C44.2629 20.8346 44.9866 21.8201 45.8267 22.8257C45.8385 22.8412 45.8731 22.8857 45.8849 22.9012L46.0076 23.0439C46.1122 23.1612 46.2795 23.3958 46.4559 23.3958H62.7749C63.1441 23.3958 63.1086 23.2967 63.0159 22.9639C61.8167 18.6325 58.1453 12.1 54.5922 9.2642C46.134 2.47344 41.0534 0.22773 30.2132 0.492305C-2.6723 5.14828 -10.2795 44.8845 17.7263 60.5181C19.9247 61.6001 22.1777 62.4692 24.4625 63.1002L32.6689 26.6598H29.5385C28.9767 26.6598 21.1094 41.2069 20.3466 42.5788H19.8811C19.8475 42.4525 18.9337 41.156 18.831 41.0314C9.08354 29.181 25.5235 7.36308 43.2519 20.0081L43.2501 20.0072ZM41.1371 63.173C43.6446 62.4574 46.1286 61.39 48.5588 59.9344C57.6717 54.4784 62.9159 46.1947 64.3469 35.358C64.537 34.0433 64.5279 29.9074 64.2169 28.6145C64.1305 28.2563 64.2324 27.8581 63.7078 27.8581H48.6543C48.1742 27.8581 48.5116 28.8837 48.5725 29.1392C49.6244 33.5715 48.437 37.3819 46.2277 41.2841C45.9494 41.7215 45.5203 42.1642 45.4467 42.3024C45.3657 42.4552 45.3621 42.4888 45.2575 42.6461C44.9284 42.4888 44.9775 42.7107 44.7702 42.3343C44.5729 41.9897 36.1465 26.6607 35.7992 26.6607H32.6689L41.138 63.1739L41.1371 63.173Z" fill="white"/>
<path fill-rule="evenodd" clip-rule="evenodd" d="M89.7174 35.5536C88.49 36.2564 87.2335 36.7756 85.9461 37.1202C84.6596 37.4593 83.3067 37.6293 81.8956 37.6293C80.2991 37.6293 78.8271 37.3847 77.4906 36.901C76.1486 36.4119 74.9767 35.6945 73.9739 34.7508C72.941 33.768 72.1527 32.616 71.6136 31.304C71.0699 29.9875 70.8008 28.5756 70.8008 27.0636C70.8008 23.8859 71.8582 21.3266 73.9784 19.3818C76.0986 17.4416 78.8971 16.4688 82.3739 16.4688C83.6213 16.4688 84.8378 16.6033 86.0207 16.8779C87.2081 17.1516 88.38 17.5716 89.5374 18.1344V22.9331C88.41 22.1994 87.2726 21.6511 86.1352 21.292C84.9933 20.9283 83.8559 20.7483 82.713 20.7483C80.6528 20.7483 79.0262 21.3075 77.8443 22.4294C76.6623 23.5523 76.0677 25.0934 76.0677 27.0636C76.0677 28.9738 76.6314 30.5003 77.7643 31.6377C78.8917 32.7797 80.4128 33.3488 82.3239 33.3488C83.5513 33.3488 84.7832 33.1343 86.0197 32.7006C87.2572 32.2669 88.4891 31.6232 89.7156 30.7749V35.5536V35.5545L89.7174 35.5536ZM105.556 35.7527C104.613 36.3664 103.615 36.8256 102.567 37.1202C101.52 37.4193 100.402 37.5684 99.2148 37.5684C96.83 37.5684 94.9598 36.9147 93.6079 35.6082C92.2559 34.3062 91.5776 32.4951 91.5776 30.1857C91.5776 28.0555 92.2413 26.3453 93.5633 25.0624C94.8898 23.7805 96.6555 23.1422 98.8557 23.1422C101.026 23.1422 102.742 23.8359 103.999 25.2225C105.256 26.6099 105.884 28.5246 105.884 30.9595V31.104H96.0663V31.164C96.0663 32.2614 96.44 33.1288 97.1937 33.768C97.942 34.4062 98.9694 34.7262 100.277 34.7262C101.155 34.7262 102.032 34.5717 102.911 34.2571C103.784 33.948 104.666 33.4834 105.555 32.8706V35.7536L105.556 35.7527ZM96.0972 28.9792L101.485 28.9638C101.405 28.071 101.136 27.3682 100.672 26.8636C100.208 26.3599 99.6094 26.1053 98.8812 26.1053C98.1274 26.1053 97.5047 26.3599 97.011 26.8636C96.5218 27.3672 96.2127 28.0764 96.0981 28.9783H96.0972V28.9792ZM117.831 33.3234V27.3872C117.452 27.1027 117.063 26.8881 116.659 26.7435C116.26 26.599 115.851 26.5235 115.432 26.5235C114.369 26.5235 113.531 26.8681 112.917 27.5564C112.304 28.2401 111.994 29.1774 111.994 30.3548C111.994 31.5068 112.304 32.4296 112.917 33.1333C113.531 33.8371 114.339 34.1853 115.347 34.1853C115.776 34.1853 116.19 34.1153 116.594 33.9707C116.999 33.8307 117.412 33.617 117.831 33.3225V33.3234ZM118.006 36.1319C117.432 36.621 116.819 36.9801 116.165 37.2147C115.512 37.4493 114.793 37.5684 114.005 37.5684C112.054 37.5684 110.482 36.9047 109.28 35.5782C108.079 34.2562 107.475 32.5151 107.475 30.3603C107.475 28.2101 108.079 26.459 109.285 25.1224C110.492 23.7805 112.064 23.1122 114.004 23.1122C114.762 23.1122 115.456 23.2222 116.084 23.4413C116.713 23.6605 117.297 23.985 117.83 24.4242V16.827L121.923 18.1153L122.199 37.2693H118.004V36.1319H118.006ZM132.642 33.9571V30.5649C131.15 31.0886 130.153 31.5523 129.655 31.9468C129.151 32.3405 128.901 32.8097 128.901 33.3534C128.901 33.8016 129.035 34.1562 129.31 34.4208C129.584 34.6853 129.958 34.8144 130.436 34.8144C130.756 34.8144 131.1 34.7399 131.475 34.5944C131.844 34.4499 132.233 34.2353 132.642 33.9562H132.641L132.642 33.9571ZM132.861 35.9873C132.208 36.5165 131.529 36.9056 130.821 37.1592C130.118 37.4138 129.36 37.5384 128.552 37.5384C127.215 37.5384 126.207 37.2138 125.523 36.5655C124.84 35.9173 124.501 34.9545 124.501 33.677C124.501 32.5651 125.005 31.6523 126.013 30.934C127.021 30.2157 129.231 29.3629 132.643 28.3801C132.653 28.3301 132.658 28.2755 132.663 28.2201C132.668 28.1601 132.673 28.0801 132.673 27.9809C132.673 27.3218 132.449 26.8335 132.009 26.519C131.566 26.2053 130.883 26.0453 129.955 26.0453C129.176 26.0453 128.379 26.2353 127.555 26.6144C126.737 26.9936 125.939 27.5418 125.16 28.2601L125.22 24.8179C126.058 24.2542 126.982 23.835 127.989 23.5559C128.996 23.2813 130.129 23.1422 131.387 23.1422C133.387 23.1422 134.833 23.5268 135.726 24.2942C136.624 25.0624 137.073 26.2889 137.073 27.9809V33.5025C137.073 33.8271 137.117 34.0462 137.202 34.1762C137.292 34.3007 137.436 34.3662 137.641 34.3662C137.831 34.3662 138.02 34.3417 138.219 34.2917C138.418 34.2471 138.687 34.1516 139.017 34.0171V36.441C138.229 36.8201 137.525 37.1002 136.917 37.2738C136.309 37.4484 135.73 37.5384 135.186 37.5384C134.492 37.5384 133.949 37.4084 133.555 37.1492C133.161 36.8901 132.932 36.5055 132.861 35.9864L132.862 35.9873H132.861ZM140.819 37.2693L140.766 26.2508L145.189 23.4113V27.1227C145.933 25.7252 146.641 24.7233 147.324 24.1142C148.008 23.5059 148.756 23.2013 149.564 23.2013C149.963 23.2013 150.382 23.2804 150.826 23.4459C151.27 23.6105 151.769 23.8696 152.313 24.2142L151.141 28.2001C150.707 27.8555 150.297 27.6064 149.928 27.4463C149.56 27.2918 149.19 27.2118 148.83 27.2118C148.002 27.2118 147.259 27.5764 146.6 28.3092C145.942 29.0429 145.473 30.0403 145.188 31.3122V37.2684H140.819H140.818L140.819 37.2693Z" fill="white"/>
<path d="M160.324 37.0861L152.033 16.4647L157.784 17.9476L161.336 27.5987L165.357 16.4647H168.759L172.779 27.5987L176.244 17.9867L182.082 16.4647L173.792 37.0861H171.667L167.063 24.311L162.419 37.0861H160.324ZM183.28 36.907V23.05H187.651V36.907H183.28ZM183.131 18.5649C183.131 17.9112 183.356 17.3584 183.809 16.9038C184.263 16.4502 184.812 16.2256 185.465 16.2256C186.129 16.2256 186.682 16.4502 187.126 16.8993C187.575 17.3475 187.8 17.9021 187.8 18.5649C187.8 19.2232 187.575 19.7723 187.126 20.2215C186.682 20.6697 186.129 20.8952 185.465 20.8952C184.812 20.8952 184.263 20.6706 183.809 20.2169C183.356 19.7633 183.131 19.2141 183.131 18.5658V18.5649ZM191.421 26.0721H189.446V25.1393L195.103 19.0086H195.762V23.0491H200.49V26.0721H195.762V31.19C195.762 32.2519 195.912 32.9656 196.215 33.3193C196.514 33.673 197.064 33.853 197.861 33.853C198.25 33.853 198.664 33.7985 199.098 33.6839C199.528 33.5739 199.997 33.3993 200.49 33.1657L200.52 36.4278C199.817 36.6915 199.114 36.887 198.416 37.0161C197.712 37.1407 197.014 37.2061 196.321 37.2061C194.56 37.2061 193.298 36.7524 192.55 35.8441C191.796 34.9368 191.422 33.3748 191.422 31.16V26.0721V26.0731L191.421 26.0721Z" fill="#5CA904"/>
<path d="M94.4823 43.5818V42.4351H102.488V43.5818H99.1314V53.1093H97.8388V43.5818H94.4823ZM106.512 53.2761C105.74 53.2761 105.075 53.1059 104.515 52.7653C103.959 52.4213 103.53 51.9418 103.228 51.3268C102.929 50.7083 102.78 49.9891 102.78 49.169C102.78 48.349 102.929 47.6263 103.228 47.0008C103.53 46.3719 103.951 45.882 104.489 45.5311C105.031 45.1766 105.664 44.9994 106.387 44.9994C106.803 44.9994 107.215 45.0689 107.622 45.2079C108.028 45.3469 108.398 45.5728 108.732 45.8855C109.066 46.1947 109.331 46.6047 109.529 47.1155C109.727 47.6263 109.826 48.2552 109.826 49.0023V49.5235H103.655V48.4602H108.576C108.576 48.0085 108.485 47.6054 108.305 47.251C108.127 46.8966 107.874 46.6169 107.544 46.4119C107.217 46.2069 106.831 46.1044 106.387 46.1044C105.897 46.1044 105.473 46.226 105.115 46.4692C104.76 46.709 104.488 47.0217 104.297 47.4074C104.105 47.7931 104.01 48.2066 104.01 48.6478V49.3567C104.01 49.9613 104.114 50.4738 104.323 50.8942C104.535 51.3112 104.828 51.6291 105.203 51.848C105.579 52.0635 106.015 52.1712 106.512 52.1712C106.835 52.1712 107.127 52.126 107.387 52.0357C107.651 51.9418 107.879 51.8029 108.07 51.6187C108.261 51.4311 108.409 51.1983 108.513 50.9203L109.701 51.2539C109.576 51.6569 109.366 52.0113 109.071 52.3171C108.775 52.6194 108.411 52.8557 107.976 53.0259C107.542 53.1927 107.054 53.2761 106.512 53.2761ZM114.95 53.2761C114.199 53.2761 113.553 53.0989 113.011 52.7445C112.469 52.3901 112.052 51.9019 111.76 51.2799C111.468 50.6579 111.322 49.9474 111.322 49.1482C111.322 48.3351 111.472 47.6176 111.771 46.9956C112.073 46.3702 112.493 45.882 113.032 45.5311C113.574 45.1766 114.206 44.9994 114.929 44.9994C115.492 44.9994 115.999 45.1037 116.451 45.3122C116.903 45.5206 117.273 45.8125 117.561 46.1878C117.849 46.563 118.028 47.0008 118.098 47.5012H116.868C116.774 47.1364 116.566 46.8132 116.242 46.5318C115.923 46.2468 115.492 46.1044 114.95 46.1044C114.47 46.1044 114.05 46.2295 113.689 46.4796C113.331 46.7263 113.051 47.0756 112.849 47.5273C112.651 47.9755 112.552 48.5019 112.552 49.1065C112.552 49.725 112.65 50.2636 112.844 50.7222C113.042 51.1809 113.32 51.537 113.678 51.7907C114.04 52.0443 114.463 52.1712 114.95 52.1712C115.27 52.1712 115.56 52.1156 115.82 52.0044C116.081 51.8932 116.302 51.7334 116.482 51.5249C116.663 51.3164 116.791 51.0662 116.868 50.7743H118.098C118.028 51.2469 117.856 51.6726 117.582 52.0513C117.311 52.4266 116.951 52.7254 116.503 52.9478C116.058 53.1667 115.541 53.2761 114.95 53.2761ZM121.126 48.2934V53.1093H119.896V42.4351H121.126V46.3546H121.23C121.418 45.9411 121.699 45.6127 122.075 45.3695C122.453 45.1228 122.957 44.9994 123.586 44.9994C124.132 44.9994 124.609 45.1089 125.019 45.3278C125.429 45.5432 125.747 45.8751 125.973 46.3233C126.203 46.768 126.317 47.3344 126.317 48.0224V53.1093H125.087V48.1058C125.087 47.4699 124.922 46.9783 124.592 46.6308C124.265 46.2799 123.812 46.1044 123.232 46.1044C122.829 46.1044 122.467 46.1895 122.148 46.3598C121.831 46.53 121.581 46.7785 121.397 47.1051C121.216 47.4317 121.126 47.8278 121.126 48.2934ZM129.798 48.2934V53.1093H128.568V45.1037H129.756V46.3546H129.86C130.048 45.948 130.333 45.6214 130.715 45.3747C131.097 45.1245 131.591 44.9994 132.195 44.9994C132.737 44.9994 133.211 45.1106 133.618 45.333C134.025 45.5519 134.341 45.8855 134.567 46.3337C134.792 46.7785 134.905 47.3414 134.905 48.0224V53.1093H133.675V48.1058C133.675 47.4769 133.512 46.9869 133.185 46.636C132.859 46.2816 132.411 46.1044 131.841 46.1044C131.448 46.1044 131.097 46.1895 130.788 46.3598C130.482 46.53 130.241 46.7785 130.063 47.1051C129.886 47.4317 129.798 47.8278 129.798 48.2934ZM140.405 53.2761C139.683 53.2761 139.049 53.1041 138.503 52.7601C137.961 52.4161 137.537 51.9349 137.231 51.3164C136.929 50.6979 136.778 49.9752 136.778 49.1482C136.778 48.3143 136.929 47.5863 137.231 46.9644C137.537 46.3424 137.961 45.8594 138.503 45.5154C139.049 45.1714 139.683 44.9994 140.405 44.9994C141.128 44.9994 141.76 45.1714 142.303 45.5154C142.848 45.8594 143.272 46.3424 143.574 46.9644C143.88 47.5863 144.033 48.3143 144.033 49.1482C144.033 49.9752 143.88 50.6979 143.574 51.3164C143.272 51.9349 142.848 52.4161 142.303 52.7601C141.76 53.1041 141.128 53.2761 140.405 53.2761ZM140.405 52.1712C140.954 52.1712 141.406 52.0304 141.76 51.749C142.115 51.4675 142.377 51.0975 142.548 50.6388C142.718 50.1802 142.803 49.6833 142.803 49.1482C142.803 48.6131 142.718 48.1145 142.548 47.6523C142.377 47.1902 142.115 46.8167 141.76 46.5318C141.406 46.2468 140.954 46.1044 140.405 46.1044C139.856 46.1044 139.405 46.2468 139.05 46.5318C138.696 46.8167 138.433 47.1902 138.263 47.6523C138.093 48.1145 138.008 48.6131 138.008 49.1482C138.008 49.6833 138.093 50.1802 138.263 50.6388C138.433 51.0975 138.696 51.4675 139.05 51.749C139.405 52.0304 139.856 52.1712 140.405 52.1712ZM147.141 42.4351V53.1093H145.911V42.4351H147.141ZM152.646 53.2761C151.923 53.2761 151.289 53.1041 150.743 52.7601C150.201 52.4161 149.777 51.9349 149.472 51.3164C149.169 50.6979 149.018 49.9752 149.018 49.1482C149.018 48.3143 149.169 47.5863 149.472 46.9644C149.777 46.3424 150.201 45.8594 150.743 45.5154C151.289 45.1714 151.923 44.9994 152.646 44.9994C153.369 44.9994 154.001 45.1714 154.543 45.5154C155.088 45.8594 155.512 46.3424 155.815 46.9644C156.12 47.5863 156.273 48.3143 156.273 49.1482C156.273 49.9752 156.12 50.6979 155.815 51.3164C155.512 51.9349 155.088 52.4161 154.543 52.7601C154.001 53.1041 153.369 53.2761 152.646 53.2761ZM152.646 52.1712C153.195 52.1712 153.646 52.0304 154.001 51.749C154.355 51.4675 154.618 51.0975 154.788 50.6388C154.958 50.1802 155.043 49.6833 155.043 49.1482C155.043 48.6131 154.958 48.1145 154.788 47.6523C154.618 47.1902 154.355 46.8167 154.001 46.5318C153.646 46.2468 153.195 46.1044 152.646 46.1044C152.097 46.1044 151.645 46.2468 151.291 46.5318C150.936 46.8167 150.674 47.1902 150.504 47.6523C150.333 48.1145 150.248 48.6131 150.248 49.1482C150.248 49.6833 150.333 50.1802 150.504 50.6388C150.674 51.0975 150.936 51.4675 151.291 51.749C151.645 52.0304 152.097 52.1712 152.646 52.1712ZM161.382 56.2782C160.788 56.2782 160.277 56.2018 159.85 56.0489C159.423 55.8995 159.067 55.7014 158.782 55.4547C158.5 55.2115 158.276 54.9509 158.109 54.6729L159.089 53.985C159.2 54.1309 159.341 54.2977 159.511 54.4853C159.682 54.6764 159.914 54.8415 160.21 54.9804C160.509 55.1229 160.899 55.1941 161.382 55.1941C162.029 55.1941 162.562 55.0378 162.983 54.7251C163.403 54.4123 163.613 53.9224 163.613 53.2553V51.6291H163.509C163.419 51.7751 163.29 51.9557 163.123 52.1712C162.96 52.3831 162.724 52.5725 162.414 52.7393C162.109 52.9026 161.695 52.9842 161.174 52.9842C160.528 52.9842 159.947 52.8314 159.433 52.5256C158.922 52.2198 158.518 51.7751 158.219 51.1913C157.923 50.6076 157.776 49.8987 157.776 49.0648C157.776 48.2448 157.92 47.5307 158.208 46.9227C158.497 46.3111 158.898 45.8386 159.412 45.505C159.927 45.168 160.521 44.9994 161.195 44.9994C161.716 44.9994 162.129 45.0863 162.435 45.26C162.745 45.4303 162.981 45.6249 163.144 45.8438C163.311 46.0592 163.439 46.2364 163.53 46.3754H163.655V45.1037H164.843V53.3387C164.843 54.0266 164.687 54.5861 164.374 55.0169C164.065 55.4513 163.648 55.7692 163.123 55.9707C162.602 56.1757 162.022 56.2782 161.382 56.2782ZM161.341 51.8793C161.834 51.8793 162.251 51.7664 162.592 51.5405C162.932 51.3147 163.191 50.9898 163.368 50.5659C163.545 50.142 163.634 49.6347 163.634 49.044C163.634 48.4672 163.547 47.9581 163.373 47.5168C163.2 47.0756 162.943 46.7298 162.602 46.4796C162.262 46.2295 161.841 46.1044 161.341 46.1044C160.82 46.1044 160.385 46.2364 160.038 46.5005C159.694 46.7646 159.435 47.119 159.261 47.5637C159.091 48.0085 159.006 48.5019 159.006 49.044C159.006 49.5999 159.093 50.0916 159.266 50.519C159.444 50.9429 159.704 51.2764 160.048 51.5197C160.396 51.7594 160.826 51.8793 161.341 51.8793ZM167.095 53.1093V45.1037H168.325V53.1093H167.095ZM167.72 43.7694C167.481 43.7694 167.274 43.6877 167.1 43.5244C166.93 43.3611 166.845 43.1648 166.845 42.9355C166.845 42.7061 166.93 42.5098 167.1 42.3465C167.274 42.1832 167.481 42.1016 167.72 42.1016C167.96 42.1016 168.165 42.1832 168.335 42.3465C168.509 42.5098 168.596 42.7061 168.596 42.9355C168.596 43.1648 168.509 43.3611 168.335 43.5244C168.165 43.6877 167.96 43.7694 167.72 43.7694ZM173.934 53.2761C173.163 53.2761 172.498 53.1059 171.938 52.7653C171.382 52.4213 170.953 51.9418 170.651 51.3268C170.352 50.7083 170.202 49.9891 170.202 49.169C170.202 48.349 170.352 47.6263 170.651 47.0008C170.953 46.3719 171.373 45.882 171.912 45.5311C172.454 45.1766 173.086 44.9994 173.809 44.9994C174.226 44.9994 174.638 45.0689 175.044 45.2079C175.451 45.3469 175.821 45.5728 176.155 45.8855C176.488 46.1947 176.754 46.6047 176.952 47.1155C177.15 47.6263 177.249 48.2552 177.249 49.0023V49.5235H171.078V48.4602H175.998C175.998 48.0085 175.908 47.6054 175.727 47.251C175.55 46.8966 175.296 46.6169 174.966 46.4119C174.64 46.2069 174.254 46.1044 173.809 46.1044C173.319 46.1044 172.895 46.226 172.537 46.4692C172.183 46.709 171.91 47.0217 171.719 47.4074C171.528 47.7931 171.433 48.2066 171.433 48.6478V49.3567C171.433 49.9613 171.537 50.4738 171.745 50.8942C171.957 51.3112 172.251 51.6291 172.626 51.848C173.001 52.0635 173.437 52.1712 173.934 52.1712C174.257 52.1712 174.549 52.126 174.81 52.0357C175.074 51.9418 175.302 51.8029 175.493 51.6187C175.684 51.4311 175.831 51.1983 175.936 50.9203L177.124 51.2539C176.999 51.6569 176.789 52.0113 176.493 52.3171C176.198 52.6194 175.833 52.8557 175.399 53.0259C174.965 53.1927 174.476 53.2761 173.934 53.2761ZM184.791 46.8966L183.686 47.2093C183.616 47.0252 183.514 46.8462 183.378 46.6725C183.246 46.4953 183.066 46.3493 182.836 46.2347C182.607 46.12 182.313 46.0627 181.956 46.0627C181.466 46.0627 181.057 46.1756 180.731 46.4015C180.408 46.6238 180.246 46.907 180.246 47.251C180.246 47.5568 180.357 47.7983 180.58 47.9755C180.802 48.1527 181.149 48.3004 181.622 48.4185L182.81 48.7104C183.526 48.8841 184.059 49.1499 184.41 49.5078C184.761 49.8622 184.937 50.3192 184.937 50.8786C184.937 51.3372 184.805 51.7473 184.541 52.1086C184.28 52.47 183.915 52.7549 183.446 52.9634C182.977 53.1719 182.432 53.2761 181.81 53.2761C180.993 53.2761 180.317 53.0989 179.782 52.7445C179.247 52.3901 178.908 51.8723 178.766 51.1913L179.933 50.8994C180.044 51.3303 180.255 51.6534 180.564 51.8689C180.877 52.0843 181.285 52.192 181.789 52.192C182.362 52.192 182.817 52.0704 183.154 51.8272C183.495 51.5805 183.665 51.2851 183.665 50.9411C183.665 50.6632 183.568 50.4304 183.373 50.2427C183.179 50.0516 182.88 49.9092 182.477 49.8153L181.142 49.5026C180.409 49.3289 179.871 49.0596 179.527 48.6948C179.186 48.3264 179.016 47.866 179.016 47.3136C179.016 46.8619 179.143 46.4623 179.396 46.1148C179.654 45.7673 180.003 45.4946 180.444 45.2965C180.889 45.0985 181.393 44.9994 181.956 44.9994C182.748 44.9994 183.37 45.1732 183.821 45.5206C184.277 45.8681 184.6 46.3268 184.791 46.8966Z" fill="white"/>
</svg>
