<svg width="141" height="138" viewBox="0 0 141 138" fill="none" xmlns="http://www.w3.org/2000/svg">
<path d="M93.8001 42.8839C96.0286 44.6992 97.6156 46.8624 99.4527 49.0691C99.4744 49.1017 99.5505 49.1995 99.5832 49.2321L99.8549 49.5474C100.083 49.8083 100.453 50.3192 100.833 50.3192H136.662C137.477 50.3192 137.39 50.1018 137.195 49.3735C134.564 39.8619 126.498 25.5239 118.704 19.2952C100.138 4.392 88.9846 -0.543134 65.1894 0.0329942C-7.00049 10.2511 -23.6973 97.4856 37.7744 131.803C42.6009 134.173 47.5469 136.086 52.5581 137.467L70.5702 57.4719H63.7002C62.4718 57.4719 45.1989 89.4089 43.5248 92.42H42.503C42.4269 92.1482 40.4268 89.3002 40.1985 89.0176C18.7948 63.0049 54.8952 15.1102 93.811 42.8621L93.8001 42.8839ZM89.1585 137.641C94.6589 136.075 100.116 133.727 105.453 130.531C125.455 118.552 136.966 100.366 140.108 76.5819C140.521 73.6904 140.51 64.6137 139.825 61.7765C139.64 60.9938 139.858 60.1133 138.705 60.1133H105.66C104.605 60.1133 105.344 62.3635 105.475 62.9288C107.779 72.6577 105.181 81.0279 100.333 89.5937C99.7245 90.5503 98.7787 91.5286 98.6157 91.833C98.4418 92.17 98.4309 92.2461 98.2026 92.583C97.4852 92.2352 97.583 92.7243 97.1265 91.8982C96.6916 91.1373 78.1903 57.4936 77.4294 57.4936H70.5594L89.1476 137.651L89.1585 137.641Z" fill="#5CA904"/>
</svg>
