<svg width="201" height="62" viewBox="0 0 201 62" fill="none" xmlns="http://www.w3.org/2000/svg">
<path fill-rule="evenodd" clip-rule="evenodd" d="M42.7236 19.1866C43.7186 19.999 44.4291 20.9676 45.2542 21.9544C45.266 21.9698 45.2996 22.0135 45.3114 22.028L45.4323 22.1688C45.535 22.2842 45.6994 22.5141 45.8721 22.5141H61.899C62.2616 22.5141 62.2261 22.4169 62.1362 22.0898C60.9585 17.8364 57.3521 11.4203 53.8628 8.63526C45.5559 1.96661 40.5664 -0.239621 29.9197 0.0202562C-2.37683 4.59263 -9.84783 43.6178 17.6564 58.9714C19.8154 60.0336 22.0279 60.8878 24.2714 61.5075L32.3303 25.719H29.2554C28.7039 25.719 20.9766 40.0058 20.2279 41.3534H19.7708C19.7381 41.2298 18.8404 39.9559 18.7395 39.8332C9.16587 28.1942 25.3127 6.76706 42.7236 19.1857V19.1866ZM40.6482 61.5802C43.1107 60.8778 45.5504 59.8292 47.9375 58.3998C56.8878 53.0415 62.038 44.9053 63.4428 34.2631C63.6291 32.9719 63.6209 28.9102 63.3147 27.6408C63.2302 27.2891 63.3292 26.8984 62.8149 26.8984H48.0311C47.5595 26.8984 47.8911 27.9061 47.9502 28.156C48.9833 32.5094 47.8166 36.2513 45.6476 40.0831C45.375 40.512 44.9534 40.9472 44.8807 41.0826C44.8008 41.2325 44.798 41.2652 44.6945 41.4197C44.371 41.2652 44.42 41.4833 44.2156 41.1135C44.022 40.7755 35.746 25.7199 35.4052 25.7199H32.3312L40.6491 61.5802H40.6482Z" fill="#5E6737"/>
<mask id="mask0_150_361" style="mask-type:luminance" maskUnits="userSpaceOnUse" x="0" y="0" width="64" height="62">
<path d="M42.7236 19.1866C43.7186 19.999 44.4291 20.9676 45.2542 21.9544C45.266 21.9698 45.2996 22.0135 45.3114 22.028L45.4323 22.1688C45.535 22.2842 45.6994 22.5141 45.8721 22.5141H61.899C62.2616 22.5141 62.2261 22.4169 62.1362 22.0898C60.9585 17.8364 57.3521 11.4203 53.8628 8.63526C45.5559 1.96661 40.5664 -0.239621 29.9197 0.0202562C-2.37683 4.59263 -9.84783 43.6178 17.6564 58.9714C19.8154 60.0336 22.0279 60.8878 24.2714 61.5075L32.3303 25.719H29.2554C28.7039 25.719 20.9766 40.0058 20.2279 41.3534H19.7708C19.7381 41.2298 18.8404 39.9559 18.7395 39.8332C9.16587 28.1942 25.3127 6.76706 42.7236 19.1857V19.1866ZM40.6482 61.5802C43.1107 60.8778 45.5504 59.8292 47.9375 58.3998C56.8878 53.0415 62.038 44.9053 63.4428 34.2631C63.6291 32.9719 63.6209 28.9102 63.3147 27.6408C63.2302 27.2891 63.3292 26.8984 62.8149 26.8984H48.0311C47.5595 26.8984 47.8911 27.9061 47.9502 28.156C48.9833 32.5094 47.8166 36.2513 45.6476 40.0831C45.375 40.512 44.9534 40.9472 44.8807 41.0826C44.8008 41.2325 44.798 41.2652 44.6945 41.4197C44.371 41.2652 44.42 41.4833 44.2156 41.1135C44.022 40.7755 35.746 25.7199 35.4052 25.7199H32.3312L40.6491 61.5802H40.6482Z" fill="white"/>
</mask>
<g mask="url(#mask0_150_361)">
<path fill-rule="evenodd" clip-rule="evenodd" d="M3.65792 -57.4134C40.1124 -76.1054 78.5351 -73.9601 89.4763 -52.6202C100.418 -31.2803 79.7354 1.17159 43.2809 19.8627C6.82642 38.5548 -31.5962 36.4094 -42.5374 15.0695C-53.4795 -6.27034 -32.7975 -38.7222 3.65792 -57.4143V-57.4134Z" fill="#FEFEFE" fill-opacity="0.501961"/>
</g>
<path fill-rule="evenodd" clip-rule="evenodd" d="M91.9359 34.4538C90.731 35.1444 89.4961 35.6541 88.2322 35.9922C86.9682 36.3247 85.6407 36.4919 84.2541 36.4919C82.6866 36.4919 81.241 36.252 79.9279 35.7768C78.6104 35.297 77.4591 34.5919 76.4741 33.6651C75.4601 32.7001 74.6859 31.5679 74.1561 30.2794C73.6228 28.9864 73.3574 27.5998 73.3574 26.115C73.3574 22.9947 74.396 20.4813 76.4778 18.5704C78.5604 16.665 81.3082 15.71 84.7229 15.71C85.9478 15.71 87.1436 15.8426 88.304 16.1116C89.4698 16.3806 90.621 16.7922 91.7578 17.3455V22.0588C90.6501 21.3382 89.5334 20.7994 88.4166 20.4468C87.2954 20.0897 86.1777 19.9134 85.0564 19.9134C83.0328 19.9134 81.4363 20.4623 80.275 21.5645C79.1138 22.6667 78.5304 24.1805 78.5304 26.1159C78.5304 27.9914 79.0838 29.4916 80.196 30.6084C81.3036 31.7305 82.7975 32.2885 84.6739 32.2885C85.8788 32.2885 87.0891 32.0777 88.304 31.6515C89.5188 31.2253 90.7292 30.5929 91.9341 29.7606V34.4538V34.4547L91.9359 34.4538ZM107.491 34.6492C106.565 35.2516 105.586 35.7032 104.556 35.9922C103.528 36.2857 102.43 36.4329 101.264 36.4329C98.9216 36.4329 97.0852 35.7904 95.7577 34.5074C94.4301 33.2289 93.7641 31.4507 93.7641 29.1827C93.7641 27.0909 94.4156 25.4108 95.7141 24.1514C97.0171 22.892 98.7517 22.265 100.912 22.265C103.042 22.265 104.728 22.9456 105.963 24.3077C107.197 25.6698 107.815 27.5507 107.815 29.9414V30.0841H98.1729V30.1431C98.1729 31.2208 98.54 32.0731 99.2806 32.7001C100.016 33.3271 101.024 33.6405 102.308 33.6405C103.171 33.6405 104.033 33.4888 104.895 33.1799C105.753 32.8764 106.62 32.4202 107.492 31.8178V34.6492L107.493 34.6483L107.491 34.6492ZM98.202 27.9969L103.493 27.9823C103.414 27.1055 103.151 26.4149 102.694 25.9197C102.238 25.4244 101.651 25.1746 100.935 25.1746C100.196 25.1746 99.5832 25.4244 99.0988 25.9197C98.6182 26.4149 98.3147 27.11 98.202 27.9969ZM119.547 32.2639V26.4349C119.175 26.155 118.793 25.9451 118.396 25.8024C118.004 25.6607 117.603 25.5871 117.191 25.5871C116.148 25.5871 115.325 25.9251 114.721 26.6012C114.119 27.2727 113.815 28.1931 113.815 29.3499C113.815 30.482 114.12 31.388 114.721 32.0786C115.324 32.7701 116.118 33.1117 117.108 33.1117C117.529 33.1117 117.935 33.0426 118.332 32.9009C118.73 32.7637 119.136 32.5529 119.547 32.2639ZM119.719 35.0226C119.156 35.5024 118.553 35.8559 117.912 36.0858C117.27 36.3156 116.565 36.4338 115.79 36.4338C113.875 36.4338 112.331 35.7823 111.15 34.4792C109.97 33.1808 109.377 31.4707 109.377 29.3553C109.377 27.2436 109.969 25.5235 111.155 24.2114C112.341 22.8938 113.884 22.2369 115.79 22.2369C116.535 22.2369 117.216 22.345 117.833 22.5603C118.451 22.7757 119.023 23.0937 119.547 23.5253V16.0634L123.567 17.3283L123.839 36.1394H119.719V35.0226ZM134.093 32.8864V29.5543C132.628 30.0686 131.648 30.5248 131.159 30.9109C130.664 31.298 130.419 31.7587 130.419 32.2921C130.419 32.7328 130.552 33.0808 130.821 33.3407C131.09 33.6006 131.458 33.7278 131.928 33.7278C132.241 33.7278 132.579 33.6542 132.947 33.5124C133.31 33.3707 133.692 33.1599 134.094 32.8855H134.093V32.8864ZM134.308 34.88C133.667 35.3988 133.001 35.7814 132.305 36.0312C131.614 36.2811 130.869 36.4038 130.076 36.4038C128.763 36.4038 127.773 36.0858 127.102 35.4479C126.431 34.8109 126.098 33.865 126.098 32.6119C126.098 31.5197 126.593 30.6238 127.583 29.9178C128.572 29.2126 130.742 28.3749 134.094 27.409C134.104 27.3599 134.109 27.3063 134.114 27.2518C134.119 27.1927 134.124 27.1146 134.124 27.0164C134.124 26.3695 133.903 25.8897 133.472 25.5807C133.036 25.2727 132.366 25.1155 131.454 25.1155C130.69 25.1155 129.907 25.3018 129.098 25.6743C128.295 26.0469 127.511 26.5857 126.747 27.2908L126.806 23.9097C127.629 23.3563 128.535 22.9447 129.524 22.6703C130.514 22.4004 131.626 22.2632 132.861 22.2632C134.825 22.2632 136.246 22.6403 137.124 23.3954C138.005 24.1496 138.446 25.3545 138.446 27.0155V32.4384C138.446 32.7564 138.49 32.9727 138.573 33.0999C138.661 33.2226 138.804 33.2862 139.004 33.2862C139.19 33.2862 139.376 33.2616 139.571 33.2126C139.767 33.168 140.032 33.0754 140.355 32.9427V35.3234C139.581 35.6959 138.89 35.9704 138.292 36.1412C137.694 36.312 137.126 36.4011 136.592 36.4011C135.911 36.4011 135.377 36.2738 134.99 36.0185C134.603 35.7641 134.378 35.3861 134.309 34.8772L134.31 34.8781L134.308 34.88ZM142.123 36.1394L142.071 25.3181L146.415 22.5295V26.1741C147.145 24.802 147.84 23.8179 148.511 23.22C149.182 22.6221 149.917 22.3232 150.711 22.3232C151.102 22.3232 151.514 22.4013 151.95 22.5631C152.386 22.7248 152.876 22.9792 153.41 23.3173L152.259 27.2318C151.833 26.8937 151.431 26.6484 151.069 26.4921C150.707 26.3404 150.344 26.2622 149.991 26.2622C149.178 26.2622 148.448 26.6202 147.801 27.3399C147.155 28.0605 146.693 29.04 146.415 30.2894V36.1385H142.123H142.122L142.123 36.1394Z" fill="#5E6737"/>
<path d="M161.281 35.9583L153.139 15.7061L158.787 17.1627L162.275 26.6409L166.223 15.7061H169.565L173.513 26.6409L176.916 17.2009L182.649 15.7061L174.508 35.9583H172.42L167.898 23.4116L163.337 35.9583H161.279H161.28H161.281ZM183.827 35.782V22.1721H188.118V35.782H183.827ZM183.68 17.7688C183.68 17.1263 183.9 16.5839 184.346 16.1377C184.791 15.6916 185.331 15.4717 185.972 15.4717C186.624 15.4717 187.168 15.6916 187.603 16.1332C188.045 16.5739 188.265 17.1173 188.265 17.7697C188.265 18.4157 188.045 18.9555 187.603 19.3962C187.167 19.8369 186.624 20.0577 185.972 20.0577C185.331 20.0577 184.792 19.8378 184.346 19.3916C183.9 18.9464 183.68 18.4067 183.68 17.7697V17.7688ZM191.821 25.1416H189.881V24.2257L195.437 18.2049H196.083V22.173H200.727V25.1416H196.083V30.1683C196.083 31.2115 196.23 31.9121 196.529 32.2601C196.822 32.6081 197.362 32.7844 198.145 32.7844C198.528 32.7844 198.934 32.7308 199.36 32.6181C199.781 32.51 200.242 32.3382 200.728 32.1083L200.757 35.3123C200.065 35.5712 199.376 35.763 198.69 35.8902C197.998 36.0128 197.313 36.0765 196.632 36.0765C194.902 36.0765 193.662 35.6303 192.928 34.7389C192.188 33.8475 191.82 32.3137 191.82 30.1393V25.1416V25.1425L191.821 25.1416Z" fill="#5CA904"/>
<path d="M96.62 42.5893V41.4631H104.483V42.5893H101.186V51.9467H99.9166V42.5893H96.62ZM108.435 52.1105C107.677 52.1105 107.023 51.9433 106.474 51.6089C105.928 51.271 105.506 50.8001 105.21 50.1961C104.916 49.5886 104.769 48.8822 104.769 48.0768C104.769 47.2714 104.916 46.5616 105.21 45.9473C105.506 45.3297 105.919 44.8485 106.448 44.5038C106.981 44.1557 107.602 43.9817 108.312 43.9817C108.721 43.9817 109.126 44.0499 109.525 44.1864C109.924 44.3229 110.288 44.5447 110.615 44.8519C110.943 45.1556 111.204 45.5583 111.398 46.06C111.593 46.5616 111.69 47.1793 111.69 47.913V48.4249H105.629V47.3806H110.462C110.462 46.937 110.373 46.5411 110.195 46.193C110.021 45.845 109.772 45.5702 109.448 45.3689C109.127 45.1676 108.748 45.0669 108.312 45.0669C107.83 45.0669 107.414 45.1863 107.063 45.4252C106.715 45.6607 106.447 45.9678 106.259 46.3466C106.071 46.7254 105.977 47.1315 105.977 47.5649V48.2611C105.977 48.8549 106.08 49.3583 106.285 49.7712C106.493 50.1807 106.781 50.493 107.15 50.708C107.518 50.9195 107.947 51.0253 108.435 51.0253C108.752 51.0253 109.039 50.981 109.294 50.8922C109.554 50.8001 109.777 50.6636 109.965 50.4827C110.153 50.2984 110.298 50.0698 110.4 49.7968L111.567 50.1244C111.444 50.5203 111.238 50.8683 110.948 51.1687C110.658 51.4656 110.3 51.6976 109.873 51.8648C109.446 52.0286 108.967 52.1105 108.435 52.1105ZM116.722 52.1105C115.985 52.1105 115.35 51.9365 114.818 51.5884C114.285 51.2403 113.876 50.7608 113.589 50.15C113.303 49.5391 113.159 48.8412 113.159 48.0563C113.159 47.2578 113.306 46.5531 113.6 45.9422C113.896 45.3279 114.309 44.8485 114.838 44.5038C115.371 44.1557 115.992 43.9817 116.702 43.9817C117.254 43.9817 117.753 44.084 118.196 44.2888C118.64 44.4936 119.003 44.7802 119.287 45.1488C119.57 45.5173 119.746 45.9473 119.814 46.4388H118.606C118.514 46.0804 118.309 45.7631 117.992 45.4866C117.678 45.2068 117.254 45.0669 116.722 45.0669C116.251 45.0669 115.838 45.1897 115.483 45.4354C115.132 45.6777 114.857 46.0207 114.659 46.4644C114.465 46.9046 114.367 47.4216 114.367 48.0154C114.367 48.6228 114.463 49.1518 114.654 49.6023C114.849 50.0527 115.122 50.4025 115.473 50.6516C115.828 50.9008 116.244 51.0253 116.722 51.0253C117.036 51.0253 117.321 50.9707 117.577 50.8615C117.833 50.7523 118.05 50.5953 118.227 50.3906C118.405 50.1858 118.531 49.9401 118.606 49.6535H119.814C119.746 50.1176 119.577 50.5356 119.307 50.9076C119.041 51.2762 118.688 51.5696 118.248 51.788C117.811 52.003 117.302 52.1105 116.722 52.1105ZM122.788 47.2168V51.9467H121.58V41.4631H122.788V45.3126H122.89C123.075 44.9065 123.351 44.584 123.72 44.3451C124.092 44.1028 124.586 43.9817 125.204 43.9817C125.74 43.9817 126.209 44.0892 126.612 44.3042C127.015 44.5157 127.327 44.8416 127.549 45.2819C127.774 45.7187 127.886 46.275 127.886 46.9507V51.9467H126.678V47.0326C126.678 46.408 126.516 45.9252 126.192 45.5839C125.871 45.2392 125.426 45.0669 124.856 45.0669C124.46 45.0669 124.105 45.1505 123.791 45.3177C123.481 45.4849 123.235 45.7289 123.054 46.0497C122.877 46.3705 122.788 46.7595 122.788 47.2168ZM131.305 47.2168V51.9467H130.097V44.084H131.264V45.3126H131.366C131.55 44.9133 131.83 44.5925 132.206 44.3502C132.581 44.1045 133.066 43.9817 133.659 43.9817C134.192 43.9817 134.658 44.0909 135.057 44.3093C135.456 44.5243 135.767 44.8519 135.988 45.2921C136.21 45.7289 136.321 46.2818 136.321 46.9507V51.9467H135.113V47.0326C135.113 46.4149 134.953 45.9337 134.632 45.589C134.311 45.2409 133.871 45.0669 133.311 45.0669C132.926 45.0669 132.581 45.1505 132.277 45.3177C131.977 45.4849 131.74 45.7289 131.566 46.0497C131.392 46.3705 131.305 46.7595 131.305 47.2168ZM141.723 52.1105C141.013 52.1105 140.39 51.9416 139.855 51.6038C139.322 51.2659 138.906 50.7933 138.606 50.1858C138.309 49.5784 138.16 48.8685 138.16 48.0563C138.16 47.2373 138.309 46.5224 138.606 45.9115C138.906 45.3006 139.322 44.8263 139.855 44.4884C140.39 44.1506 141.013 43.9817 141.723 43.9817C142.433 43.9817 143.054 44.1506 143.586 44.4884C144.122 44.8263 144.538 45.3006 144.835 45.9115C145.136 46.5224 145.286 47.2373 145.286 48.0563C145.286 48.8685 145.136 49.5784 144.835 50.1858C144.538 50.7933 144.122 51.2659 143.586 51.6038C143.054 51.9416 142.433 52.1105 141.723 52.1105ZM141.723 51.0253C142.262 51.0253 142.706 50.8871 143.054 50.6107C143.402 50.3343 143.66 49.9708 143.827 49.5204C143.994 49.0699 144.078 48.5819 144.078 48.0563C144.078 47.5308 143.994 47.0411 143.827 46.5872C143.66 46.1333 143.402 45.7665 143.054 45.4866C142.706 45.2068 142.262 45.0669 141.723 45.0669C141.184 45.0669 140.74 45.2068 140.392 45.4866C140.044 45.7665 139.786 46.1333 139.619 46.5872C139.452 47.0411 139.368 47.5308 139.368 48.0563C139.368 48.5819 139.452 49.0699 139.619 49.5204C139.786 49.9708 140.044 50.3343 140.392 50.6107C140.74 50.8871 141.184 51.0253 141.723 51.0253ZM148.338 41.4631V51.9467H147.13V41.4631H148.338ZM153.745 52.1105C153.035 52.1105 152.412 51.9416 151.876 51.6038C151.344 51.2659 150.928 50.7933 150.627 50.1858C150.33 49.5784 150.182 48.8685 150.182 48.0563C150.182 47.2373 150.33 46.5224 150.627 45.9115C150.928 45.3006 151.344 44.8263 151.876 44.4884C152.412 44.1506 153.035 43.9817 153.745 43.9817C154.455 43.9817 155.076 44.1506 155.608 44.4884C156.144 44.8263 156.56 45.3006 156.857 45.9115C157.157 46.5224 157.308 47.2373 157.308 48.0563C157.308 48.8685 157.157 49.5784 156.857 50.1858C156.56 50.7933 156.144 51.2659 155.608 51.6038C155.076 51.9416 154.455 52.1105 153.745 52.1105ZM153.745 51.0253C154.284 51.0253 154.728 50.8871 155.076 50.6107C155.424 50.3343 155.681 49.9708 155.849 49.5204C156.016 49.0699 156.1 48.5819 156.1 48.0563C156.1 47.5308 156.016 47.0411 155.849 46.5872C155.681 46.1333 155.424 45.7665 155.076 45.4866C154.728 45.2068 154.284 45.0669 153.745 45.0669C153.206 45.0669 152.762 45.2068 152.414 45.4866C152.066 45.7665 151.808 46.1333 151.641 46.5872C151.474 47.0411 151.39 47.5308 151.39 48.0563C151.39 48.5819 151.474 49.0699 151.641 49.5204C151.808 49.9708 152.066 50.3343 152.414 50.6107C152.762 50.8871 153.206 51.0253 153.745 51.0253ZM162.325 55.0591C161.742 55.0591 161.24 54.984 160.82 54.8338C160.401 54.6871 160.051 54.4926 159.771 54.2503C159.495 54.0114 159.275 53.7554 159.111 53.4824L160.073 52.8067C160.182 52.95 160.321 53.1139 160.488 53.2981C160.655 53.4858 160.884 53.6479 161.174 53.7844C161.467 53.9244 161.851 53.9943 162.325 53.9943C162.96 53.9943 163.484 53.8407 163.897 53.5336C164.31 53.2265 164.516 52.7453 164.516 52.0901V50.493H164.414C164.325 50.6363 164.199 50.8137 164.035 51.0253C163.875 51.2335 163.643 51.4195 163.339 51.5833C163.039 51.7437 162.633 51.8239 162.121 51.8239C161.486 51.8239 160.916 51.6737 160.411 51.3734C159.909 51.0731 159.512 50.6363 159.218 50.063C158.928 49.4896 158.783 48.7935 158.783 47.9744C158.783 47.1691 158.925 46.4678 159.208 45.8706C159.491 45.2699 159.885 44.8058 160.39 44.4782C160.896 44.1472 161.479 43.9817 162.141 43.9817C162.653 43.9817 163.059 44.067 163.359 44.2376C163.663 44.4048 163.895 44.5959 164.056 44.8109C164.219 45.0225 164.346 45.1966 164.434 45.3331H164.557V44.084H165.724V52.172C165.724 52.8477 165.571 53.3971 165.264 53.8203C164.96 54.2468 164.55 54.5591 164.035 54.757C163.523 54.9584 162.953 55.0591 162.325 55.0591ZM162.284 50.7387C162.769 50.7387 163.179 50.6278 163.513 50.4059C163.847 50.1841 164.102 49.865 164.276 49.4487C164.45 49.0324 164.537 48.5341 164.537 47.954C164.537 47.3875 164.451 46.8875 164.281 46.4541C164.11 46.0207 163.858 45.6812 163.523 45.4354C163.189 45.1897 162.776 45.0669 162.284 45.0669C161.773 45.0669 161.346 45.1966 161.005 45.4559C160.667 45.7153 160.413 46.0634 160.242 46.5002C160.075 46.937 159.991 47.4216 159.991 47.954C159.991 48.5 160.077 48.9829 160.247 49.4026C160.421 49.819 160.677 50.1466 161.015 50.3855C161.356 50.6209 161.779 50.7387 162.284 50.7387ZM167.936 51.9467V44.084H169.144V51.9467H167.936ZM168.55 42.7736C168.315 42.7736 168.112 42.6934 167.941 42.533C167.774 42.3726 167.69 42.1798 167.69 41.9546C167.69 41.7293 167.774 41.5365 167.941 41.3761C168.112 41.2157 168.315 41.1355 168.55 41.1355C168.786 41.1355 168.987 41.2157 169.154 41.3761C169.325 41.5365 169.41 41.7293 169.41 41.9546C169.41 42.1798 169.325 42.3726 169.154 42.533C168.987 42.6934 168.786 42.7736 168.55 42.7736ZM174.653 52.1105C173.896 52.1105 173.242 51.9433 172.693 51.6089C172.147 51.271 171.725 50.8001 171.428 50.1961C171.135 49.5886 170.988 48.8822 170.988 48.0768C170.988 47.2714 171.135 46.5616 171.428 45.9473C171.725 45.3297 172.138 44.8485 172.667 44.5038C173.199 44.1557 173.82 43.9817 174.53 43.9817C174.94 43.9817 175.344 44.0499 175.743 44.1864C176.143 44.3229 176.506 44.5447 176.834 44.8519C177.161 45.1556 177.422 45.5583 177.617 46.06C177.811 46.5616 177.909 47.1793 177.909 47.913V48.4249H171.848V47.3806H176.68C176.68 46.937 176.591 46.5411 176.414 46.193C176.24 45.845 175.991 45.5702 175.667 45.3689C175.346 45.1676 174.967 45.0669 174.53 45.0669C174.049 45.0669 173.633 45.1863 173.281 45.4252C172.933 45.6607 172.665 45.9678 172.478 46.3466C172.29 46.7254 172.196 47.1315 172.196 47.5649V48.2611C172.196 48.8549 172.298 49.3583 172.503 49.7712C172.711 50.1807 173 50.493 173.368 50.708C173.737 50.9195 174.165 51.0253 174.653 51.0253C174.97 51.0253 175.257 50.981 175.513 50.8922C175.772 50.8001 175.996 50.6636 176.184 50.4827C176.371 50.2984 176.516 50.0698 176.619 49.7968L177.786 50.1244C177.663 50.5203 177.457 50.8683 177.167 51.1687C176.876 51.4656 176.518 51.6976 176.092 51.8648C175.665 52.0286 175.185 52.1105 174.653 52.1105ZM185.316 45.845L184.231 46.1521C184.162 45.9712 184.062 45.7955 183.929 45.6248C183.799 45.4508 183.621 45.3075 183.396 45.1949C183.171 45.0822 182.883 45.0259 182.531 45.0259C182.05 45.0259 181.649 45.1368 181.328 45.3587C181.011 45.5771 180.852 45.8552 180.852 46.193C180.852 46.4934 180.961 46.7305 181.18 46.9046C181.398 47.0786 181.739 47.2237 182.204 47.3397L183.371 47.6264C184.074 47.797 184.597 48.058 184.942 48.4095C185.287 48.7576 185.459 49.2064 185.459 49.7558C185.459 50.2063 185.33 50.609 185.07 50.9639C184.814 51.3188 184.456 51.5986 183.995 51.8034C183.534 52.0082 182.999 52.1105 182.388 52.1105C181.586 52.1105 180.922 51.9365 180.397 51.5884C179.871 51.2403 179.538 50.7318 179.398 50.063L180.545 49.7763C180.654 50.1995 180.861 50.5168 181.164 50.7284C181.472 50.94 181.873 51.0458 182.367 51.0458C182.93 51.0458 183.377 50.9264 183.709 50.6875C184.043 50.4452 184.21 50.1551 184.21 49.8173C184.21 49.5442 184.115 49.3156 183.924 49.1313C183.732 48.9436 183.439 48.8037 183.043 48.7116L181.733 48.4044C181.013 48.2338 180.484 47.9693 180.146 47.611C179.811 47.2493 179.644 46.7971 179.644 46.2545C179.644 45.8108 179.769 45.4184 180.018 45.0771C180.27 44.7359 180.613 44.468 181.047 44.2734C181.483 44.0789 181.978 43.9817 182.531 43.9817C183.309 43.9817 183.92 44.1523 184.364 44.4936C184.811 44.8348 185.128 45.2853 185.316 45.845Z" fill="#5E6737"/>
</svg>
