<svg width="360" height="831" viewBox="0 0 360 831" fill="none" xmlns="http://www.w3.org/2000/svg">
<path d="M382.174 239.633C382.174 239.633 315.78 309.101 252.8 318.503C189.819 327.906 100.166 404.395 53.4188 418.583C-40.1069 446.97 -79.4277 428.754 -118.754 437.231C-158.081 445.709 -288.629 555.094 -288.629 555.094" stroke="url(#paint0_linear_336_2999)" stroke-width="0.41836"/>
<path d="M382.576 241.686C382.576 241.686 316.181 311.154 253.201 320.556C190.221 329.958 100.568 406.447 53.8201 420.636C-39.7055 449.023 -79.0263 430.807 -118.353 439.284C-157.679 447.761 -288.228 557.147 -288.228 557.147" stroke="url(#paint1_linear_336_2999)" stroke-width="0.41836"/>
<path d="M382.897 243.328C382.897 243.328 316.503 312.796 253.523 322.198C190.543 331.601 100.89 408.09 54.1419 422.278C-39.3837 450.665 -78.7045 432.449 -118.031 440.926C-157.358 449.404 -287.906 558.79 -287.906 558.79" stroke="url(#paint2_linear_336_2999)" stroke-width="0.41836"/>
<path d="M383.3 245.381C383.3 245.381 316.906 314.849 253.925 324.251C190.945 333.653 101.292 410.142 54.5443 424.331C-38.9814 452.718 -78.3022 434.502 -117.629 442.979C-156.955 451.457 -287.504 560.842 -287.504 560.842" stroke="url(#paint3_linear_336_2999)" stroke-width="0.41836"/>
<path d="M383.702 247.433C383.702 247.433 317.307 316.902 254.327 326.304C191.347 335.706 101.694 412.195 54.9461 426.384C-38.5796 454.77 -77.9003 436.554 -117.227 445.032C-156.553 453.509 -287.102 562.895 -287.102 562.895" stroke="url(#paint4_linear_336_2999)" stroke-width="0.41836"/>
<path d="M384.023 249.075C384.023 249.075 317.629 318.544 254.649 327.946C191.669 337.348 102.016 413.837 55.2679 428.026C-38.2578 456.412 -77.5786 438.196 -116.905 446.674C-156.232 455.151 -286.78 564.537 -286.78 564.537" stroke="url(#paint5_linear_336_2999)" stroke-width="0.41836"/>
<path d="M384.426 251.128C384.426 251.128 318.032 320.596 255.051 329.999C192.071 339.401 102.418 415.89 55.6702 430.079C-37.8554 458.465 -77.1762 440.249 -116.503 448.727C-155.829 457.204 -286.378 566.59 -286.378 566.59" stroke="url(#paint6_linear_336_2999)" stroke-width="0.41836"/>
<path d="M384.827 253.181C384.827 253.181 318.433 322.65 255.453 332.052C192.472 341.454 102.819 417.943 56.0716 432.132C-37.4541 460.518 -76.7749 442.302 -116.101 450.78C-155.428 459.257 -285.976 568.643 -285.976 568.643" stroke="url(#paint7_linear_336_2999)" stroke-width="0.41836"/>
<path d="M385.149 254.823C385.149 254.823 318.755 324.292 255.775 333.694C192.795 343.096 103.141 419.585 56.3939 433.774C-37.1318 462.16 -76.4526 443.944 -115.779 452.422C-155.106 460.899 -285.654 570.285 -285.654 570.285" stroke="url(#paint8_linear_336_2999)" stroke-width="0.41836"/>
<path d="M385.551 256.876C385.551 256.876 319.157 326.344 256.176 335.747C193.196 345.149 103.543 421.638 56.7952 435.827C-36.7304 464.213 -76.0512 445.997 -115.378 454.475C-154.704 462.952 -285.253 572.338 -285.253 572.338" stroke="url(#paint9_linear_336_2999)" stroke-width="0.41836"/>
<path d="M385.133 259.09C385.133 259.09 318.758 328.561 255.78 337.964C192.802 347.367 103.17 423.859 56.4264 438.049C-37.092 466.437 -76.4185 448.22 -115.743 456.697C-155.067 465.175 -285.585 574.566 -285.585 574.566" stroke="url(#paint10_linear_336_2999)" stroke-width="0.41836"/>
<path d="M386.276 260.571C386.276 260.571 319.882 330.039 256.901 339.442C193.921 348.844 104.268 425.333 57.5203 439.521C-36.0053 467.908 -75.3261 449.692 -114.653 458.17C-153.979 466.647 -284.527 576.033 -284.527 576.033" stroke="url(#paint11_linear_336_2999)" stroke-width="0.41836"/>
<path d="M386.677 262.624C386.677 262.624 320.283 332.092 257.302 341.494C194.322 350.897 104.669 427.386 57.9212 441.574C-35.6045 469.961 -74.9252 451.745 -114.252 460.222C-153.578 468.7 -284.127 578.086 -284.127 578.086" stroke="url(#paint12_linear_336_2999)" stroke-width="0.41836"/>
<path d="M386.999 264.266C386.999 264.266 320.605 333.735 257.624 343.137C194.644 352.539 104.991 429.028 58.2435 443.217C-35.2822 471.603 -74.603 453.387 -113.929 461.865C-153.256 470.342 -283.804 579.728 -283.804 579.728" stroke="url(#paint13_linear_336_2999)" stroke-width="0.41836"/>
<path d="M387.401 266.319C387.401 266.319 321.007 335.787 258.027 345.189C195.046 354.592 105.393 431.081 58.6458 445.269C-34.8798 473.656 -74.2006 455.44 -113.527 463.917C-152.854 472.395 -283.402 581.781 -283.402 581.781" stroke="url(#paint14_linear_336_2999)" stroke-width="0.41836"/>
<path d="M387.803 268.372C387.803 268.372 321.409 337.84 258.428 347.242C195.448 356.645 105.795 433.134 59.0472 447.322C-34.4785 475.709 -73.7993 457.493 -113.126 465.97C-152.452 474.448 -283.001 583.833 -283.001 583.833" stroke="url(#paint15_linear_336_2999)" stroke-width="0.41836"/>
<path d="M388.125 270.014C388.125 270.014 321.731 339.482 258.75 348.884C195.77 358.287 106.117 434.776 59.3695 448.964C-34.1562 477.351 -73.477 459.135 -112.804 467.612C-152.13 476.09 -282.678 585.476 -282.678 585.476" stroke="url(#paint16_linear_336_2999)" stroke-width="0.41836"/>
<path d="M388.938 271.986C388.938 271.986 322.543 341.455 259.563 350.857C196.583 360.259 106.93 436.748 60.182 450.937C-33.3437 479.324 -72.6645 461.108 -111.991 469.585C-151.318 478.062 -281.866 587.448 -281.866 587.448" stroke="url(#paint17_linear_336_2999)" stroke-width="0.41836"/>
<path d="M389.34 274.039C389.34 274.039 322.946 343.507 259.965 352.91C196.985 362.312 107.332 438.801 60.5843 452.989C-32.9414 481.376 -72.2622 463.16 -111.589 471.638C-150.915 480.115 -281.463 589.501 -281.463 589.501" stroke="url(#paint18_linear_336_2999)" stroke-width="0.41836"/>
<path d="M389.661 275.682C389.661 275.682 323.267 345.15 260.287 354.552C197.306 363.954 107.653 440.443 60.9056 454.632C-32.6201 483.019 -71.9409 464.803 -111.267 473.28C-150.594 481.757 -281.142 591.143 -281.142 591.143" stroke="url(#paint19_linear_336_2999)" stroke-width="0.41836"/>
<defs>
<linearGradient id="paint0_linear_336_2999" x1="72.5835" y1="250.893" x2="83.1563" y2="541.572" gradientUnits="userSpaceOnUse">
<stop offset="0.0104167" stop-color="#54C410" stop-opacity="0.2"/>
<stop offset="0.484375" stop-color="#00EBC1" stop-opacity="0.47"/>
</linearGradient>
<linearGradient id="paint1_linear_336_2999" x1="72.9849" y1="252.946" x2="83.5576" y2="543.624" gradientUnits="userSpaceOnUse">
<stop offset="0.0104167" stop-color="#54C410" stop-opacity="0.2"/>
<stop offset="0.484375" stop-color="#00EBC1" stop-opacity="0.47"/>
</linearGradient>
<linearGradient id="paint2_linear_336_2999" x1="73.3066" y1="254.589" x2="83.8794" y2="545.267" gradientUnits="userSpaceOnUse">
<stop offset="0.0104167" stop-color="#54C410" stop-opacity="0.2"/>
<stop offset="0.484375" stop-color="#00EBC1" stop-opacity="0.47"/>
</linearGradient>
<linearGradient id="paint3_linear_336_2999" x1="73.709" y1="256.641" x2="84.2818" y2="547.319" gradientUnits="userSpaceOnUse">
<stop offset="0.0104167" stop-color="#54C410" stop-opacity="0.2"/>
<stop offset="0.484375" stop-color="#00EBC1" stop-opacity="0.47"/>
</linearGradient>
<linearGradient id="paint4_linear_336_2999" x1="74.1108" y1="258.694" x2="84.6836" y2="549.372" gradientUnits="userSpaceOnUse">
<stop offset="0.0104167" stop-color="#54C410" stop-opacity="0.2"/>
<stop offset="0.484375" stop-color="#00EBC1" stop-opacity="0.47"/>
</linearGradient>
<linearGradient id="paint5_linear_336_2999" x1="74.4326" y1="260.336" x2="85.0054" y2="551.014" gradientUnits="userSpaceOnUse">
<stop offset="0.0104167" stop-color="#54C410" stop-opacity="0.2"/>
<stop offset="0.484375" stop-color="#00EBC1" stop-opacity="0.47"/>
</linearGradient>
<linearGradient id="paint6_linear_336_2999" x1="74.835" y1="262.389" x2="85.4077" y2="553.067" gradientUnits="userSpaceOnUse">
<stop offset="0.0104167" stop-color="#54C410" stop-opacity="0.2"/>
<stop offset="0.484375" stop-color="#00EBC1" stop-opacity="0.47"/>
</linearGradient>
<linearGradient id="paint7_linear_336_2999" x1="75.2363" y1="264.442" x2="85.8091" y2="555.12" gradientUnits="userSpaceOnUse">
<stop offset="0.0104167" stop-color="#54C410" stop-opacity="0.2"/>
<stop offset="0.484375" stop-color="#00EBC1" stop-opacity="0.47"/>
</linearGradient>
<linearGradient id="paint8_linear_336_2999" x1="75.5586" y1="266.084" x2="86.1314" y2="556.762" gradientUnits="userSpaceOnUse">
<stop offset="0.0104167" stop-color="#54C410" stop-opacity="0.2"/>
<stop offset="0.484375" stop-color="#00EBC1" stop-opacity="0.47"/>
</linearGradient>
<linearGradient id="paint9_linear_336_2999" x1="75.96" y1="268.137" x2="86.5327" y2="558.815" gradientUnits="userSpaceOnUse">
<stop offset="0.0104167" stop-color="#54C410" stop-opacity="0.2"/>
<stop offset="0.484375" stop-color="#00EBC1" stop-opacity="0.47"/>
</linearGradient>
<linearGradient id="paint10_linear_336_2999" x1="75.542" y1="270.35" x2="86.1154" y2="561.047" gradientUnits="userSpaceOnUse">
<stop offset="0.0104167" stop-color="#54C410" stop-opacity="0.2"/>
<stop offset="0.484375" stop-color="#00EBC1" stop-opacity="0.47"/>
</linearGradient>
<linearGradient id="paint11_linear_336_2999" x1="76.6851" y1="271.832" x2="87.2578" y2="562.51" gradientUnits="userSpaceOnUse">
<stop offset="0.0104167" stop-color="#54C410" stop-opacity="0.2"/>
<stop offset="0.484375" stop-color="#00EBC1" stop-opacity="0.47"/>
</linearGradient>
<linearGradient id="paint12_linear_336_2999" x1="77.0859" y1="273.885" x2="87.6587" y2="564.563" gradientUnits="userSpaceOnUse">
<stop offset="0.0104167" stop-color="#54C410" stop-opacity="0.2"/>
<stop offset="0.484375" stop-color="#00EBC1" stop-opacity="0.47"/>
</linearGradient>
<linearGradient id="paint13_linear_336_2999" x1="77.4082" y1="275.527" x2="87.981" y2="566.205" gradientUnits="userSpaceOnUse">
<stop offset="0.0104167" stop-color="#54C410" stop-opacity="0.2"/>
<stop offset="0.484375" stop-color="#00EBC1" stop-opacity="0.47"/>
</linearGradient>
<linearGradient id="paint14_linear_336_2999" x1="77.8106" y1="277.58" x2="88.3833" y2="568.258" gradientUnits="userSpaceOnUse">
<stop offset="0.0104167" stop-color="#54C410" stop-opacity="0.2"/>
<stop offset="0.484375" stop-color="#00EBC1" stop-opacity="0.47"/>
</linearGradient>
<linearGradient id="paint15_linear_336_2999" x1="78.2119" y1="279.633" x2="88.7847" y2="570.311" gradientUnits="userSpaceOnUse">
<stop offset="0.0104167" stop-color="#54C410" stop-opacity="0.2"/>
<stop offset="0.484375" stop-color="#00EBC1" stop-opacity="0.47"/>
</linearGradient>
<linearGradient id="paint16_linear_336_2999" x1="78.5342" y1="281.275" x2="89.107" y2="571.953" gradientUnits="userSpaceOnUse">
<stop offset="0.0104167" stop-color="#54C410" stop-opacity="0.2"/>
<stop offset="0.484375" stop-color="#00EBC1" stop-opacity="0.47"/>
</linearGradient>
<linearGradient id="paint17_linear_336_2999" x1="79.3467" y1="283.247" x2="89.9195" y2="573.925" gradientUnits="userSpaceOnUse">
<stop offset="0.0104167" stop-color="#54C410" stop-opacity="0.2"/>
<stop offset="0.484375" stop-color="#00EBC1" stop-opacity="0.47"/>
</linearGradient>
<linearGradient id="paint18_linear_336_2999" x1="79.749" y1="285.3" x2="90.3218" y2="575.978" gradientUnits="userSpaceOnUse">
<stop offset="0.0104167" stop-color="#54C410" stop-opacity="0.2"/>
<stop offset="0.484375" stop-color="#00EBC1" stop-opacity="0.47"/>
</linearGradient>
<linearGradient id="paint19_linear_336_2999" x1="80.0703" y1="286.942" x2="90.6431" y2="577.62" gradientUnits="userSpaceOnUse">
<stop offset="0.0104167" stop-color="#54C410" stop-opacity="0.2"/>
<stop offset="0.484375" stop-color="#00EBC1" stop-opacity="0.47"/>
</linearGradient>
</defs>
</svg>
