<svg width="1440" height="1768" viewBox="0 0 1440 1768" fill="none" xmlns="http://www.w3.org/2000/svg">
<path d="M1594.21 631.068C1594.21 631.068 1405.38 761.849 1253.44 753.598C1101.5 745.347 854.856 881.392 738.609 892.153C506.038 913.681 422.761 852.12 326.631 853.072C230.501 854.024 -127.689 1047.46 -127.689 1047.46" stroke="url(#paint0_linear_150_504)" stroke-width="1.2221"/>
<path d="M1594.24 635.729C1594.24 635.729 1405.42 766.51 1253.48 758.259C1101.54 750.008 854.893 886.053 738.645 896.813C506.075 918.342 422.797 856.781 326.667 857.733C230.538 858.685 -127.652 1052.12 -127.652 1052.12" stroke="url(#paint1_linear_150_504)" stroke-width="1.2221"/>
<path d="M1594.27 640.391C1594.27 640.391 1405.45 771.172 1253.5 762.921C1101.56 754.67 854.92 890.714 738.672 901.475C506.101 923.003 422.824 861.443 326.694 862.395C230.564 863.347 -127.626 1056.78 -127.626 1056.78" stroke="url(#paint2_linear_150_504)" stroke-width="1.2221"/>
<path d="M1594.3 645.052C1594.3 645.052 1405.48 775.834 1253.54 767.583C1101.6 759.331 854.953 895.376 738.705 906.137C506.134 927.665 422.857 866.105 326.727 867.057C230.597 868.009 -127.593 1061.44 -127.593 1061.44" stroke="url(#paint3_linear_150_504)" stroke-width="1.2221"/>
<path d="M1594.34 649.714C1594.34 649.714 1405.51 780.495 1253.57 772.244C1101.63 763.993 854.986 900.038 738.738 910.798C506.167 932.327 422.89 870.766 326.76 871.718C230.63 872.67 -127.56 1066.1 -127.56 1066.1" stroke="url(#paint4_linear_150_504)" stroke-width="1.2221"/>
<path d="M1594.37 654.375C1594.37 654.375 1405.55 785.157 1253.6 776.906C1101.66 768.655 855.02 904.699 738.773 915.46C506.202 936.988 422.925 875.428 326.795 876.38C230.665 877.332 -127.525 1070.76 -127.525 1070.76" stroke="url(#paint5_linear_150_504)" stroke-width="1.2221"/>
<path d="M1594.4 659.037C1594.4 659.037 1405.58 789.818 1253.64 781.567C1101.69 773.316 855.051 909.361 738.804 920.121C506.233 941.65 422.956 880.089 326.826 881.041C230.696 881.993 -127.494 1075.43 -127.494 1075.43" stroke="url(#paint6_linear_150_504)" stroke-width="1.2221"/>
<path d="M1594.44 663.699C1594.44 663.699 1405.61 794.481 1253.67 786.23C1101.73 777.978 855.086 914.023 738.839 924.784C506.268 946.312 422.99 884.752 326.861 885.704C230.731 886.656 -127.459 1080.09 -127.459 1080.09" stroke="url(#paint7_linear_150_504)" stroke-width="1.2221"/>
<path d="M1594.47 668.36C1594.47 668.36 1405.64 799.142 1253.7 790.891C1101.76 782.639 855.117 918.684 738.87 929.445C506.299 950.973 423.021 889.413 326.892 890.365C230.762 891.317 -127.428 1084.75 -127.428 1084.75" stroke="url(#paint8_linear_150_504)" stroke-width="1.2221"/>
<path d="M1594.5 673.022C1594.5 673.022 1405.67 803.803 1253.73 795.552C1101.79 787.301 855.148 923.345 738.9 934.106C506.329 955.635 423.052 894.074 326.922 895.026C230.793 895.978 -127.398 1089.41 -127.398 1089.41" stroke="url(#paint9_linear_150_504)" stroke-width="1.2221"/>
<path d="M1592.06 678.346C1592.06 678.346 1403.4 809.282 1251.42 801.171C1099.45 793.059 852.969 929.311 736.721 940.176C504.15 961.914 420.775 900.437 324.634 901.477C228.493 902.516 -129.47 1096.25 -129.47 1096.25" stroke="url(#paint10_linear_150_504)" stroke-width="1.2221"/>
<path d="M1594.56 682.344C1594.56 682.344 1405.74 813.125 1253.79 804.874C1101.85 796.623 855.21 932.668 738.962 943.429C506.391 964.957 423.114 903.396 326.984 904.348C230.855 905.3 -127.336 1098.73 -127.336 1098.73" stroke="url(#paint11_linear_150_504)" stroke-width="1.2221"/>
<path d="M1594.6 687.005C1594.6 687.005 1405.77 817.786 1253.83 809.535C1101.89 801.284 855.247 937.329 738.999 948.089C506.428 969.618 423.151 908.057 327.021 909.009C230.891 909.961 -127.299 1103.39 -127.299 1103.39" stroke="url(#paint12_linear_150_504)" stroke-width="1.2221"/>
<path d="M1594.63 691.668C1594.63 691.668 1405.81 822.449 1253.87 814.198C1101.92 805.947 855.281 941.991 739.034 952.752C506.463 974.281 423.186 912.72 327.056 913.672C230.926 914.624 -127.264 1108.06 -127.264 1108.06" stroke="url(#paint13_linear_150_504)" stroke-width="1.2221"/>
<path d="M1594.66 696.328C1594.66 696.328 1405.83 827.11 1253.89 818.859C1101.95 810.608 855.308 946.652 739.061 957.413C506.49 978.941 423.213 917.381 327.083 918.333C230.953 919.285 -127.237 1112.72 -127.237 1112.72" stroke="url(#paint14_linear_150_504)" stroke-width="1.2221"/>
<path d="M1594.7 700.992C1594.7 700.992 1405.87 831.773 1253.93 823.522C1101.99 815.271 855.347 951.315 739.099 962.076C506.528 983.605 423.251 922.044 327.121 922.996C230.991 923.948 -127.199 1117.38 -127.199 1117.38" stroke="url(#paint15_linear_150_504)" stroke-width="1.2221"/>
<path d="M1594.73 705.652C1594.73 705.652 1405.91 836.433 1253.96 828.182C1102.02 819.931 855.38 955.976 739.132 966.737C506.561 988.265 423.284 926.704 327.154 927.656C231.024 928.608 -127.166 1122.04 -127.166 1122.04" stroke="url(#paint16_linear_150_504)" stroke-width="1.2221"/>
<path d="M1594.76 710.314C1594.76 710.314 1405.93 841.096 1253.99 832.844C1102.05 824.593 855.409 960.638 739.161 971.399C506.59 992.927 423.313 931.367 327.183 932.319C231.053 933.27 -127.137 1126.7 -127.137 1126.7" stroke="url(#paint17_linear_150_504)" stroke-width="1.2221"/>
<path d="M1594.79 714.974C1594.79 714.974 1405.97 845.756 1254.02 837.505C1102.08 829.253 855.44 965.298 739.192 976.059C506.621 997.587 423.344 936.027 327.214 936.979C231.084 937.931 -127.106 1131.36 -127.106 1131.36" stroke="url(#paint18_linear_150_504)" stroke-width="1.2221"/>
<path d="M1594.83 719.638C1594.83 719.638 1406 850.419 1254.06 842.168C1102.12 833.917 855.476 969.961 739.229 980.722C506.658 1002.25 423.381 940.69 327.251 941.642C231.121 942.594 -127.069 1136.03 -127.069 1136.03" stroke="url(#paint19_linear_150_504)" stroke-width="1.2221"/>
<defs>
<linearGradient id="paint0_linear_150_504" x1="864.125" y1="508.638" x2="749.112" y2="1194.49" gradientUnits="userSpaceOnUse">
<stop offset="0.0104167" stop-color="#54C410" stop-opacity="0.2"/>
<stop offset="0.484375" stop-color="#00EBC1" stop-opacity="0.47"/>
</linearGradient>
<linearGradient id="paint1_linear_150_504" x1="864.161" y1="513.299" x2="749.149" y2="1199.15" gradientUnits="userSpaceOnUse">
<stop offset="0.0104167" stop-color="#54C410" stop-opacity="0.2"/>
<stop offset="0.484375" stop-color="#00EBC1" stop-opacity="0.47"/>
</linearGradient>
<linearGradient id="paint2_linear_150_504" x1="864.188" y1="517.961" x2="749.175" y2="1203.81" gradientUnits="userSpaceOnUse">
<stop offset="0.0104167" stop-color="#54C410" stop-opacity="0.2"/>
<stop offset="0.484375" stop-color="#00EBC1" stop-opacity="0.47"/>
</linearGradient>
<linearGradient id="paint3_linear_150_504" x1="864.221" y1="522.622" x2="749.208" y2="1208.47" gradientUnits="userSpaceOnUse">
<stop offset="0.0104167" stop-color="#54C410" stop-opacity="0.2"/>
<stop offset="0.484375" stop-color="#00EBC1" stop-opacity="0.47"/>
</linearGradient>
<linearGradient id="paint4_linear_150_504" x1="864.254" y1="527.284" x2="749.241" y2="1213.14" gradientUnits="userSpaceOnUse">
<stop offset="0.0104167" stop-color="#54C410" stop-opacity="0.2"/>
<stop offset="0.484375" stop-color="#00EBC1" stop-opacity="0.47"/>
</linearGradient>
<linearGradient id="paint5_linear_150_504" x1="864.289" y1="531.946" x2="749.276" y2="1217.8" gradientUnits="userSpaceOnUse">
<stop offset="0.0104167" stop-color="#54C410" stop-opacity="0.2"/>
<stop offset="0.484375" stop-color="#00EBC1" stop-opacity="0.47"/>
</linearGradient>
<linearGradient id="paint6_linear_150_504" x1="864.32" y1="536.607" x2="749.307" y2="1222.46" gradientUnits="userSpaceOnUse">
<stop offset="0.0104167" stop-color="#54C410" stop-opacity="0.2"/>
<stop offset="0.484375" stop-color="#00EBC1" stop-opacity="0.47"/>
</linearGradient>
<linearGradient id="paint7_linear_150_504" x1="864.355" y1="541.27" x2="749.342" y2="1227.12" gradientUnits="userSpaceOnUse">
<stop offset="0.0104167" stop-color="#54C410" stop-opacity="0.2"/>
<stop offset="0.484375" stop-color="#00EBC1" stop-opacity="0.47"/>
</linearGradient>
<linearGradient id="paint8_linear_150_504" x1="864.386" y1="545.93" x2="749.373" y2="1231.78" gradientUnits="userSpaceOnUse">
<stop offset="0.0104167" stop-color="#54C410" stop-opacity="0.2"/>
<stop offset="0.484375" stop-color="#00EBC1" stop-opacity="0.47"/>
</linearGradient>
<linearGradient id="paint9_linear_150_504" x1="864.416" y1="550.592" x2="749.403" y2="1236.44" gradientUnits="userSpaceOnUse">
<stop offset="0.0104167" stop-color="#54C410" stop-opacity="0.2"/>
<stop offset="0.484375" stop-color="#00EBC1" stop-opacity="0.47"/>
</linearGradient>
<linearGradient id="paint10_linear_150_504" x1="861.71" y1="556.598" x2="747.385" y2="1242.42" gradientUnits="userSpaceOnUse">
<stop offset="0.0104167" stop-color="#54C410" stop-opacity="0.2"/>
<stop offset="0.484375" stop-color="#00EBC1" stop-opacity="0.47"/>
</linearGradient>
<linearGradient id="paint11_linear_150_504" x1="864.478" y1="559.914" x2="749.465" y2="1245.77" gradientUnits="userSpaceOnUse">
<stop offset="0.0104167" stop-color="#54C410" stop-opacity="0.2"/>
<stop offset="0.484375" stop-color="#00EBC1" stop-opacity="0.47"/>
</linearGradient>
<linearGradient id="paint12_linear_150_504" x1="864.515" y1="564.575" x2="749.502" y2="1250.43" gradientUnits="userSpaceOnUse">
<stop offset="0.0104167" stop-color="#54C410" stop-opacity="0.2"/>
<stop offset="0.484375" stop-color="#00EBC1" stop-opacity="0.47"/>
</linearGradient>
<linearGradient id="paint13_linear_150_504" x1="864.55" y1="569.238" x2="749.537" y2="1255.09" gradientUnits="userSpaceOnUse">
<stop offset="0.0104167" stop-color="#54C410" stop-opacity="0.2"/>
<stop offset="0.484375" stop-color="#00EBC1" stop-opacity="0.47"/>
</linearGradient>
<linearGradient id="paint14_linear_150_504" x1="864.577" y1="573.899" x2="749.564" y2="1259.75" gradientUnits="userSpaceOnUse">
<stop offset="0.0104167" stop-color="#54C410" stop-opacity="0.2"/>
<stop offset="0.484375" stop-color="#00EBC1" stop-opacity="0.47"/>
</linearGradient>
<linearGradient id="paint15_linear_150_504" x1="864.615" y1="578.562" x2="749.602" y2="1264.41" gradientUnits="userSpaceOnUse">
<stop offset="0.0104167" stop-color="#54C410" stop-opacity="0.2"/>
<stop offset="0.484375" stop-color="#00EBC1" stop-opacity="0.47"/>
</linearGradient>
<linearGradient id="paint16_linear_150_504" x1="864.648" y1="583.222" x2="749.635" y2="1269.07" gradientUnits="userSpaceOnUse">
<stop offset="0.0104167" stop-color="#54C410" stop-opacity="0.2"/>
<stop offset="0.484375" stop-color="#00EBC1" stop-opacity="0.47"/>
</linearGradient>
<linearGradient id="paint17_linear_150_504" x1="864.677" y1="587.884" x2="749.664" y2="1273.74" gradientUnits="userSpaceOnUse">
<stop offset="0.0104167" stop-color="#54C410" stop-opacity="0.2"/>
<stop offset="0.484375" stop-color="#00EBC1" stop-opacity="0.47"/>
</linearGradient>
<linearGradient id="paint18_linear_150_504" x1="864.708" y1="592.545" x2="749.695" y2="1278.4" gradientUnits="userSpaceOnUse">
<stop offset="0.0104167" stop-color="#54C410" stop-opacity="0.2"/>
<stop offset="0.484375" stop-color="#00EBC1" stop-opacity="0.47"/>
</linearGradient>
<linearGradient id="paint19_linear_150_504" x1="864.745" y1="597.208" x2="749.732" y2="1283.06" gradientUnits="userSpaceOnUse">
<stop offset="0.0104167" stop-color="#54C410" stop-opacity="0.2"/>
<stop offset="0.484375" stop-color="#00EBC1" stop-opacity="0.47"/>
</linearGradient>
</defs>
</svg>
