<svg width="1440" height="1053" viewBox="0 0 1440 1053" fill="none" xmlns="http://www.w3.org/2000/svg">
<path d="M-30.5938 1C-30.5938 1 100.807 197.153 256.262 222.458C411.717 247.763 598.592 463.359 710.048 502.659C933.032 581.283 1043.22 528.541 1138.87 551.759C1234.52 574.977 1507.73 883.244 1507.73 883.244" stroke="url(#paint0_linear_150_525)" stroke-width="1.2221"/>
<path d="M-32.6719 6.43604C-32.6719 6.43604 98.729 202.589 254.184 227.894C409.639 253.199 596.514 468.795 707.97 508.095C930.953 586.719 1041.15 533.977 1136.79 557.195C1232.44 580.413 1505.65 888.68 1505.65 888.68" stroke="url(#paint1_linear_150_525)" stroke-width="1.2221"/>
<path d="M-34.7422 11.8726C-34.7422 11.8726 96.6587 208.026 252.114 233.331C407.568 258.636 594.444 474.232 705.9 513.531C928.883 592.156 1039.07 539.414 1134.72 562.632C1230.37 585.85 1503.58 894.116 1503.58 894.116" stroke="url(#paint2_linear_150_525)" stroke-width="1.2221"/>
<path d="M-36.8184 17.3096C-36.8184 17.3096 94.5825 213.463 250.037 238.768C405.492 264.073 592.368 479.669 703.823 518.968C926.807 597.593 1037 544.851 1132.65 568.069C1228.3 591.287 1501.5 899.554 1501.5 899.554" stroke="url(#paint3_linear_150_525)" stroke-width="1.2221"/>
<path d="M-38.8906 22.7461C-38.8906 22.7461 92.5102 218.899 247.965 244.204C403.42 269.509 590.296 485.105 701.751 524.405C924.735 603.029 1034.93 550.287 1130.57 573.505C1226.22 596.723 1499.43 904.99 1499.43 904.99" stroke="url(#paint4_linear_150_525)" stroke-width="1.2221"/>
<path d="M-40.9688 28.1816C-40.9688 28.1816 90.4321 224.335 245.887 249.64C401.342 274.945 588.217 490.541 699.673 529.84C922.657 608.465 1032.85 555.723 1128.5 578.941C1224.15 602.159 1497.35 910.426 1497.35 910.426" stroke="url(#paint5_linear_150_525)" stroke-width="1.2221"/>
<path d="M-43.0427 33.6182C-43.0427 33.6182 88.3581 229.771 243.813 255.076C399.268 280.381 586.144 495.977 697.599 535.277C920.583 613.901 1030.77 561.159 1126.42 584.377C1222.07 607.595 1495.28 915.862 1495.28 915.862" stroke="url(#paint6_linear_150_525)" stroke-width="1.2221"/>
<path d="M-45.1191 39.0552C-45.1191 39.0552 86.2817 235.208 241.737 260.513C397.192 285.818 584.067 501.414 695.523 540.714C918.506 619.338 1028.7 566.596 1124.35 589.814C1219.99 613.032 1493.2 921.299 1493.2 921.299" stroke="url(#paint7_linear_150_525)" stroke-width="1.2221"/>
<path d="M-47.1914 44.4917C-47.1914 44.4917 84.2095 240.645 239.664 265.95C395.119 291.255 581.995 506.851 693.45 546.15C916.434 624.775 1026.63 572.033 1122.27 595.251C1217.92 618.469 1491.13 926.736 1491.13 926.736" stroke="url(#paint8_linear_150_525)" stroke-width="1.2221"/>
<path d="M-49.2656 49.9277C-49.2656 49.9277 82.1352 246.081 237.59 271.386C393.045 296.691 579.921 512.287 691.376 551.586C914.36 630.211 1024.55 577.469 1120.2 600.687C1215.85 623.905 1489.05 932.172 1489.05 932.172" stroke="url(#paint9_linear_150_525)" stroke-width="1.2221"/>
<path d="M-48.8262 56.522C-48.8262 56.522 82.3461 252.819 237.771 278.294C393.197 303.77 579.821 519.57 691.231 558.992C914.123 637.861 1024.38 585.239 1120 608.562C1215.62 631.885 1488.47 940.451 1488.47 940.451" stroke="url(#paint10_linear_150_525)" stroke-width="1.2221"/>
<path d="M-53.4121 60.8008C-53.4121 60.8008 77.9888 256.954 233.444 282.259C388.899 307.564 575.774 523.16 687.23 562.459C910.213 641.084 1020.4 588.342 1116.05 611.56C1211.7 634.778 1484.91 943.045 1484.91 943.045" stroke="url(#paint11_linear_150_525)" stroke-width="1.2221"/>
<path d="M-55.4902 66.2363C-55.4902 66.2363 75.9106 262.389 231.366 287.694C386.82 312.999 573.696 528.595 685.151 567.895C908.135 646.519 1018.33 593.777 1113.98 616.995C1209.62 640.213 1482.83 948.48 1482.83 948.48" stroke="url(#paint12_linear_150_525)" stroke-width="1.2221"/>
<path d="M-57.5662 71.6738C-57.5662 71.6738 73.8347 267.827 229.29 293.132C384.745 318.437 571.62 534.033 683.076 573.332C906.059 651.957 1016.25 599.215 1111.9 622.433C1207.55 645.651 1480.75 953.918 1480.75 953.918" stroke="url(#paint13_linear_150_525)" stroke-width="1.2221"/>
<path d="M-59.6367 77.1099C-59.6367 77.1099 71.7642 273.263 227.219 298.568C382.674 323.873 569.55 539.469 681.005 578.768C903.989 657.393 1014.18 604.651 1109.83 627.869C1205.48 651.087 1478.68 959.354 1478.68 959.354" stroke="url(#paint14_linear_150_525)" stroke-width="1.2221"/>
<path d="M-61.7168 82.5469C-61.7168 82.5469 69.6841 278.7 225.139 304.005C380.594 329.31 567.469 544.906 678.925 584.205C901.908 662.83 1012.1 610.088 1107.75 633.306C1203.4 656.524 1476.6 964.791 1476.6 964.791" stroke="url(#paint15_linear_150_525)" stroke-width="1.2221"/>
<path d="M-63.791 87.9829C-63.791 87.9829 67.6099 284.136 223.065 309.441C378.52 334.746 565.395 550.342 676.851 589.641C899.834 668.266 1010.03 615.524 1105.67 638.742C1201.32 661.96 1474.53 970.227 1474.53 970.227" stroke="url(#paint16_linear_150_525)" stroke-width="1.2221"/>
<path d="M-65.8633 93.4199C-65.8633 93.4199 65.5376 289.573 220.992 314.878C376.447 340.183 563.323 555.779 674.778 595.078C897.762 673.703 1007.95 620.961 1103.6 644.179C1199.25 667.397 1472.46 975.664 1472.46 975.664" stroke="url(#paint17_linear_150_525)" stroke-width="1.2221"/>
<path d="M-67.9355 98.8555C-67.9355 98.8555 63.4653 295.009 218.92 320.314C374.375 345.619 561.251 561.215 672.706 600.514C895.69 679.138 1005.88 626.397 1101.53 649.615C1197.18 672.833 1470.38 981.099 1470.38 981.099" stroke="url(#paint18_linear_150_525)" stroke-width="1.2221"/>
<path d="M-70.0156 104.292C-70.0156 104.292 61.3852 300.446 216.84 325.751C372.295 351.056 559.171 566.652 670.626 605.951C893.61 684.575 1003.8 631.834 1099.45 655.052C1195.1 678.27 1468.3 986.536 1468.3 986.536" stroke="url(#paint19_linear_150_525)" stroke-width="1.2221"/>
<path d="M1457.61 7.45557C1457.61 7.45557 1331.49 206.842 1176.76 236.041C1022.04 265.24 840.976 485.456 730.607 527.54C509.796 611.737 398.233 561.779 303.237 587.39C208.24 613.002 -56.6498 928.025 -56.6498 928.025" stroke="url(#paint20_linear_150_525)" stroke-width="1.2221"/>
<path d="M1459.83 12.8369C1459.83 12.8369 1333.71 212.223 1178.98 241.423C1024.25 270.622 843.194 490.837 732.824 532.922C512.013 617.118 400.451 567.16 305.454 592.772C210.457 618.383 -54.4321 933.406 -54.4321 933.406" stroke="url(#paint21_linear_150_525)" stroke-width="1.2221"/>
<path d="M1462.05 18.2197C1462.05 18.2197 1335.93 217.606 1181.2 246.805C1026.47 276.005 845.414 496.22 735.045 538.305C514.234 622.501 402.671 572.543 307.675 598.155C212.678 623.766 -52.2119 938.789 -52.2119 938.789" stroke="url(#paint22_linear_150_525)" stroke-width="1.2221"/>
<path d="M1464.27 23.6025C1464.27 23.6025 1338.15 222.989 1183.42 252.188C1028.69 281.387 847.633 501.603 737.263 543.687C516.452 627.884 404.89 577.926 309.893 603.537C214.896 629.149 -49.9934 944.172 -49.9934 944.172" stroke="url(#paint23_linear_150_525)" stroke-width="1.2221"/>
<path d="M1466.49 28.9844C1466.49 28.9844 1340.37 228.371 1185.64 257.57C1030.91 286.769 849.85 506.985 739.48 549.069C518.669 633.265 407.107 583.308 312.11 608.919C217.113 634.531 -47.7763 949.553 -47.7763 949.553" stroke="url(#paint24_linear_150_525)" stroke-width="1.2221"/>
<path d="M1468.71 34.3672C1468.71 34.3672 1342.59 233.754 1187.86 262.953C1033.13 292.152 852.072 512.368 741.703 554.452C520.892 638.648 409.33 588.69 314.333 614.302C219.336 639.914 -45.5537 954.936 -45.5537 954.936" stroke="url(#paint25_linear_150_525)" stroke-width="1.2221"/>
<path d="M1470.93 39.7505C1470.93 39.7505 1344.81 239.137 1190.08 268.336C1035.35 297.535 854.291 517.751 743.922 559.835C523.111 644.032 411.548 594.074 316.551 619.685C221.555 645.297 -43.3349 960.32 -43.3349 960.32" stroke="url(#paint26_linear_150_525)" stroke-width="1.2221"/>
<path d="M1473.15 45.1333C1473.15 45.1333 1347.03 244.52 1192.3 273.719C1037.57 302.918 856.51 523.134 746.14 565.218C525.329 649.414 413.767 599.457 318.77 625.068C223.773 650.68 -41.1162 965.702 -41.1162 965.702" stroke="url(#paint27_linear_150_525)" stroke-width="1.2221"/>
<path d="M1475.37 50.5146C1475.37 50.5146 1349.24 249.901 1194.51 279.1C1039.79 308.3 858.727 528.515 748.357 570.599C527.546 654.796 415.984 604.838 320.987 630.45C225.99 656.061 -38.8994 971.084 -38.8994 971.084" stroke="url(#paint28_linear_150_525)" stroke-width="1.2221"/>
<path d="M1477.59 55.8975C1477.59 55.8975 1351.46 255.284 1196.74 284.483C1042.01 313.682 860.947 533.898 750.578 575.982C529.767 660.179 418.205 610.221 323.208 635.832C228.211 661.444 -36.6787 976.466 -36.6787 976.466" stroke="url(#paint29_linear_150_525)" stroke-width="1.2221"/>
<path d="M1479.8 61.2808C1479.8 61.2808 1353.68 260.667 1198.95 289.866C1161.36 296.961 1122.21 315.333 1082.9 339.687C960.413 415.564 836.349 549.507 752.797 581.366C531.986 665.562 420.423 615.604 325.426 641.216C230.43 666.827 -34.4599 981.85 -34.4599 981.85" stroke="url(#paint30_linear_150_525)" stroke-width="1.2221"/>
<path d="M1482.02 66.6631C1482.02 66.6631 1355.9 266.049 1201.17 295.249C1046.45 324.448 865.385 544.663 755.015 586.748C534.204 670.944 422.642 620.986 327.645 646.598C232.648 672.21 -32.2412 987.232 -32.2412 987.232" stroke="url(#paint31_linear_150_525)" stroke-width="1.2221"/>
<path d="M1484.24 72.0454C1484.24 72.0454 1358.12 271.432 1203.39 300.631C1048.66 329.83 867.602 550.046 757.232 592.13C536.421 676.326 424.859 626.369 329.862 651.98C234.865 677.592 -30.0244 992.614 -30.0244 992.614" stroke="url(#paint32_linear_150_525)" stroke-width="1.2221"/>
<path d="M1486.46 77.4282C1486.46 77.4282 1360.34 276.815 1205.61 306.014C1050.88 335.213 869.822 555.429 759.453 597.513C538.642 681.709 427.08 631.752 332.083 657.363C237.086 682.975 -27.8037 997.997 -27.8037 997.997" stroke="url(#paint33_linear_150_525)" stroke-width="1.2221"/>
<path d="M1488.68 82.8105C1488.68 82.8105 1362.56 282.197 1207.83 311.396C1053.1 340.595 872.043 560.811 761.673 602.895C540.863 687.092 429.3 637.134 334.303 662.745C239.306 688.357 -25.583 1003.38 -25.583 1003.38" stroke="url(#paint34_linear_150_525)" stroke-width="1.2221"/>
<path d="M1490.9 88.1929C1490.9 88.1929 1364.78 287.579 1210.05 316.778C1055.32 345.978 874.262 566.193 763.892 608.278C543.081 692.474 431.519 642.516 336.522 668.128C241.525 693.739 -23.3642 1008.76 -23.3642 1008.76" stroke="url(#paint35_linear_150_525)" stroke-width="1.2221"/>
<path d="M1493.12 93.5752C1493.12 93.5752 1366.99 292.962 1212.26 322.161C1057.54 351.36 876.477 571.576 766.107 613.66C545.296 697.856 433.734 647.898 338.737 673.51C243.74 699.122 -21.1494 1014.14 -21.1494 1014.14" stroke="url(#paint36_linear_150_525)" stroke-width="1.2221"/>
<path d="M1495.34 98.9575C1495.34 98.9575 1369.21 298.344 1214.49 327.543C1059.76 356.742 878.697 576.958 768.328 619.042C547.517 703.239 435.955 653.281 340.958 678.892C245.961 704.504 -18.9287 1019.53 -18.9287 1019.53" stroke="url(#paint37_linear_150_525)" stroke-width="1.2221"/>
<path d="M1497.56 104.34C1497.56 104.34 1371.43 303.727 1216.71 332.926C1061.98 362.125 880.918 582.341 770.549 624.425C549.738 708.621 438.176 658.664 343.179 684.275C248.182 709.887 -16.7077 1024.91 -16.7077 1024.91" stroke="url(#paint38_linear_150_525)" stroke-width="1.2221"/>
<path d="M1499.78 109.723C1499.78 109.723 1373.65 309.109 1218.93 338.308C1064.2 367.508 883.139 587.723 772.769 629.807C551.958 714.004 440.396 664.046 345.399 689.658C250.402 715.269 -14.4873 1030.29 -14.4873 1030.29" stroke="url(#paint39_linear_150_525)" stroke-width="1.2221"/>
<path d="M1501.99 115.105C1501.99 115.105 1375.87 314.491 1221.14 343.691C1066.42 372.89 885.355 593.105 774.986 635.19C554.175 719.386 442.612 669.428 347.615 695.04C252.618 720.651 -12.2709 1035.67 -12.2709 1035.67" stroke="url(#paint40_linear_150_525)" stroke-width="1.2221"/>
<path d="M1504.21 120.488C1504.21 120.488 1378.09 319.874 1223.36 349.073C1068.63 378.273 887.573 598.488 777.203 640.573C556.392 724.769 444.83 674.811 349.833 700.423C254.836 726.034 -10.0532 1041.06 -10.0532 1041.06" stroke="url(#paint41_linear_150_525)" stroke-width="1.2221"/>
<path d="M1506.43 125.871C1506.43 125.871 1380.31 325.257 1225.58 354.457C1070.86 383.656 889.795 603.872 779.425 645.956C558.614 730.152 447.052 680.194 352.055 705.806C257.058 731.418 -7.831 1046.44 -7.831 1046.44" stroke="url(#paint42_linear_150_525)" stroke-width="1.2221"/>
<path d="M1508.65 131.252C1508.65 131.252 1382.53 330.639 1227.8 359.838C1073.08 389.037 892.015 609.253 781.646 651.337C560.835 735.533 449.273 685.576 354.276 711.187C259.279 736.799 -5.61054 1051.82 -5.61054 1051.82" stroke="url(#paint43_linear_150_525)" stroke-width="1.2221"/>
<defs>
<linearGradient id="paint0_linear_150_525" x1="752.637" y1="25.9139" x2="726.157" y2="858.383" gradientUnits="userSpaceOnUse">
<stop offset="0.0104167" stop-color="#54C410" stop-opacity="0.2"/>
<stop offset="0.484375" stop-color="#00EBC1" stop-opacity="0.47"/>
</linearGradient>
<linearGradient id="paint1_linear_150_525" x1="750.559" y1="31.3499" x2="724.079" y2="863.819" gradientUnits="userSpaceOnUse">
<stop offset="0.0104167" stop-color="#54C410" stop-opacity="0.2"/>
<stop offset="0.484375" stop-color="#00EBC1" stop-opacity="0.47"/>
</linearGradient>
<linearGradient id="paint2_linear_150_525" x1="748.489" y1="36.7865" x2="722.008" y2="869.255" gradientUnits="userSpaceOnUse">
<stop offset="0.0104167" stop-color="#54C410" stop-opacity="0.2"/>
<stop offset="0.484375" stop-color="#00EBC1" stop-opacity="0.47"/>
</linearGradient>
<linearGradient id="paint3_linear_150_525" x1="746.412" y1="42.2235" x2="719.932" y2="874.692" gradientUnits="userSpaceOnUse">
<stop offset="0.0104167" stop-color="#54C410" stop-opacity="0.2"/>
<stop offset="0.484375" stop-color="#00EBC1" stop-opacity="0.47"/>
</linearGradient>
<linearGradient id="paint4_linear_150_525" x1="744.34" y1="47.66" x2="717.86" y2="880.129" gradientUnits="userSpaceOnUse">
<stop offset="0.0104167" stop-color="#54C410" stop-opacity="0.2"/>
<stop offset="0.484375" stop-color="#00EBC1" stop-opacity="0.47"/>
</linearGradient>
<linearGradient id="paint5_linear_150_525" x1="742.262" y1="53.0955" x2="715.782" y2="885.564" gradientUnits="userSpaceOnUse">
<stop offset="0.0104167" stop-color="#54C410" stop-opacity="0.2"/>
<stop offset="0.484375" stop-color="#00EBC1" stop-opacity="0.47"/>
</linearGradient>
<linearGradient id="paint6_linear_150_525" x1="740.188" y1="58.5321" x2="713.708" y2="891.001" gradientUnits="userSpaceOnUse">
<stop offset="0.0104167" stop-color="#54C410" stop-opacity="0.2"/>
<stop offset="0.484375" stop-color="#00EBC1" stop-opacity="0.47"/>
</linearGradient>
<linearGradient id="paint7_linear_150_525" x1="738.112" y1="63.9691" x2="711.631" y2="896.438" gradientUnits="userSpaceOnUse">
<stop offset="0.0104167" stop-color="#54C410" stop-opacity="0.2"/>
<stop offset="0.484375" stop-color="#00EBC1" stop-opacity="0.47"/>
</linearGradient>
<linearGradient id="paint8_linear_150_525" x1="736.039" y1="69.4056" x2="709.559" y2="901.875" gradientUnits="userSpaceOnUse">
<stop offset="0.0104167" stop-color="#54C410" stop-opacity="0.2"/>
<stop offset="0.484375" stop-color="#00EBC1" stop-opacity="0.47"/>
</linearGradient>
<linearGradient id="paint9_linear_150_525" x1="733.965" y1="74.8416" x2="707.485" y2="907.311" gradientUnits="userSpaceOnUse">
<stop offset="0.0104167" stop-color="#54C410" stop-opacity="0.2"/>
<stop offset="0.484375" stop-color="#00EBC1" stop-opacity="0.47"/>
</linearGradient>
<linearGradient id="paint10_linear_150_525" x1="734.375" y1="82.2942" x2="706.983" y2="914.735" gradientUnits="userSpaceOnUse">
<stop offset="0.0104167" stop-color="#54C410" stop-opacity="0.2"/>
<stop offset="0.484375" stop-color="#00EBC1" stop-opacity="0.47"/>
</linearGradient>
<linearGradient id="paint11_linear_150_525" x1="729.819" y1="85.7147" x2="703.339" y2="918.184" gradientUnits="userSpaceOnUse">
<stop offset="0.0104167" stop-color="#54C410" stop-opacity="0.2"/>
<stop offset="0.484375" stop-color="#00EBC1" stop-opacity="0.47"/>
</linearGradient>
<linearGradient id="paint12_linear_150_525" x1="727.741" y1="91.1502" x2="701.26" y2="923.619" gradientUnits="userSpaceOnUse">
<stop offset="0.0104167" stop-color="#54C410" stop-opacity="0.2"/>
<stop offset="0.484375" stop-color="#00EBC1" stop-opacity="0.47"/>
</linearGradient>
<linearGradient id="paint13_linear_150_525" x1="725.665" y1="96.5877" x2="699.184" y2="929.057" gradientUnits="userSpaceOnUse">
<stop offset="0.0104167" stop-color="#54C410" stop-opacity="0.2"/>
<stop offset="0.484375" stop-color="#00EBC1" stop-opacity="0.47"/>
</linearGradient>
<linearGradient id="paint14_linear_150_525" x1="723.594" y1="102.024" x2="697.114" y2="934.493" gradientUnits="userSpaceOnUse">
<stop offset="0.0104167" stop-color="#54C410" stop-opacity="0.2"/>
<stop offset="0.484375" stop-color="#00EBC1" stop-opacity="0.47"/>
</linearGradient>
<linearGradient id="paint15_linear_150_525" x1="721.514" y1="107.461" x2="695.034" y2="939.93" gradientUnits="userSpaceOnUse">
<stop offset="0.0104167" stop-color="#54C410" stop-opacity="0.2"/>
<stop offset="0.484375" stop-color="#00EBC1" stop-opacity="0.47"/>
</linearGradient>
<linearGradient id="paint16_linear_150_525" x1="719.44" y1="112.897" x2="692.96" y2="945.366" gradientUnits="userSpaceOnUse">
<stop offset="0.0104167" stop-color="#54C410" stop-opacity="0.2"/>
<stop offset="0.484375" stop-color="#00EBC1" stop-opacity="0.47"/>
</linearGradient>
<linearGradient id="paint17_linear_150_525" x1="717.367" y1="118.334" x2="690.887" y2="950.803" gradientUnits="userSpaceOnUse">
<stop offset="0.0104167" stop-color="#54C410" stop-opacity="0.2"/>
<stop offset="0.484375" stop-color="#00EBC1" stop-opacity="0.47"/>
</linearGradient>
<linearGradient id="paint18_linear_150_525" x1="715.295" y1="123.769" x2="688.815" y2="956.238" gradientUnits="userSpaceOnUse">
<stop offset="0.0104167" stop-color="#54C410" stop-opacity="0.2"/>
<stop offset="0.484375" stop-color="#00EBC1" stop-opacity="0.47"/>
</linearGradient>
<linearGradient id="paint19_linear_150_525" x1="713.215" y1="129.206" x2="686.735" y2="961.675" gradientUnits="userSpaceOnUse">
<stop offset="0.0104167" stop-color="#54C410" stop-opacity="0.2"/>
<stop offset="0.484375" stop-color="#00EBC1" stop-opacity="0.47"/>
</linearGradient>
<linearGradient id="paint20_linear_150_525" x1="675.311" y1="52.0247" x2="722.689" y2="883.624" gradientUnits="userSpaceOnUse">
<stop offset="0.0104167" stop-color="#54C410" stop-opacity="0.2"/>
<stop offset="0.484375" stop-color="#00EBC1" stop-opacity="0.47"/>
</linearGradient>
<linearGradient id="paint21_linear_150_525" x1="677.529" y1="57.4061" x2="724.907" y2="889.006" gradientUnits="userSpaceOnUse">
<stop offset="0.0104167" stop-color="#54C410" stop-opacity="0.2"/>
<stop offset="0.484375" stop-color="#00EBC1" stop-opacity="0.47"/>
</linearGradient>
<linearGradient id="paint22_linear_150_525" x1="679.749" y1="62.7889" x2="727.127" y2="894.388" gradientUnits="userSpaceOnUse">
<stop offset="0.0104167" stop-color="#54C410" stop-opacity="0.2"/>
<stop offset="0.484375" stop-color="#00EBC1" stop-opacity="0.47"/>
</linearGradient>
<linearGradient id="paint23_linear_150_525" x1="681.968" y1="68.1717" x2="729.345" y2="899.771" gradientUnits="userSpaceOnUse">
<stop offset="0.0104167" stop-color="#54C410" stop-opacity="0.2"/>
<stop offset="0.484375" stop-color="#00EBC1" stop-opacity="0.47"/>
</linearGradient>
<linearGradient id="paint24_linear_150_525" x1="684.185" y1="73.5536" x2="731.562" y2="905.153" gradientUnits="userSpaceOnUse">
<stop offset="0.0104167" stop-color="#54C410" stop-opacity="0.2"/>
<stop offset="0.484375" stop-color="#00EBC1" stop-opacity="0.47"/>
</linearGradient>
<linearGradient id="paint25_linear_150_525" x1="686.407" y1="78.9364" x2="733.785" y2="910.536" gradientUnits="userSpaceOnUse">
<stop offset="0.0104167" stop-color="#54C410" stop-opacity="0.2"/>
<stop offset="0.484375" stop-color="#00EBC1" stop-opacity="0.47"/>
</linearGradient>
<linearGradient id="paint26_linear_150_525" x1="688.626" y1="84.3197" x2="736.004" y2="915.919" gradientUnits="userSpaceOnUse">
<stop offset="0.0104167" stop-color="#54C410" stop-opacity="0.2"/>
<stop offset="0.484375" stop-color="#00EBC1" stop-opacity="0.47"/>
</linearGradient>
<linearGradient id="paint27_linear_150_525" x1="690.845" y1="89.7025" x2="738.223" y2="921.302" gradientUnits="userSpaceOnUse">
<stop offset="0.0104167" stop-color="#54C410" stop-opacity="0.2"/>
<stop offset="0.484375" stop-color="#00EBC1" stop-opacity="0.47"/>
</linearGradient>
<linearGradient id="paint28_linear_150_525" x1="693.062" y1="95.0838" x2="740.439" y2="926.683" gradientUnits="userSpaceOnUse">
<stop offset="0.0104167" stop-color="#54C410" stop-opacity="0.2"/>
<stop offset="0.484375" stop-color="#00EBC1" stop-opacity="0.47"/>
</linearGradient>
<linearGradient id="paint29_linear_150_525" x1="695.282" y1="100.467" x2="742.66" y2="932.066" gradientUnits="userSpaceOnUse">
<stop offset="0.0104167" stop-color="#54C410" stop-opacity="0.2"/>
<stop offset="0.484375" stop-color="#00EBC1" stop-opacity="0.47"/>
</linearGradient>
<linearGradient id="paint30_linear_150_525" x1="697.501" y1="105.85" x2="744.879" y2="937.45" gradientUnits="userSpaceOnUse">
<stop offset="0.0104167" stop-color="#54C410" stop-opacity="0.2"/>
<stop offset="0.484375" stop-color="#00EBC1" stop-opacity="0.47"/>
</linearGradient>
<linearGradient id="paint31_linear_150_525" x1="699.72" y1="111.232" x2="747.098" y2="942.832" gradientUnits="userSpaceOnUse">
<stop offset="0.0104167" stop-color="#54C410" stop-opacity="0.2"/>
<stop offset="0.484375" stop-color="#00EBC1" stop-opacity="0.47"/>
</linearGradient>
<linearGradient id="paint32_linear_150_525" x1="701.937" y1="116.615" x2="749.314" y2="948.214" gradientUnits="userSpaceOnUse">
<stop offset="0.0104167" stop-color="#54C410" stop-opacity="0.2"/>
<stop offset="0.484375" stop-color="#00EBC1" stop-opacity="0.47"/>
</linearGradient>
<linearGradient id="paint33_linear_150_525" x1="704.157" y1="121.997" x2="751.535" y2="953.597" gradientUnits="userSpaceOnUse">
<stop offset="0.0104167" stop-color="#54C410" stop-opacity="0.2"/>
<stop offset="0.484375" stop-color="#00EBC1" stop-opacity="0.47"/>
</linearGradient>
<linearGradient id="paint34_linear_150_525" x1="706.378" y1="127.38" x2="753.756" y2="958.979" gradientUnits="userSpaceOnUse">
<stop offset="0.0104167" stop-color="#54C410" stop-opacity="0.2"/>
<stop offset="0.484375" stop-color="#00EBC1" stop-opacity="0.47"/>
</linearGradient>
<linearGradient id="paint35_linear_150_525" x1="708.597" y1="132.762" x2="755.974" y2="964.362" gradientUnits="userSpaceOnUse">
<stop offset="0.0104167" stop-color="#54C410" stop-opacity="0.2"/>
<stop offset="0.484375" stop-color="#00EBC1" stop-opacity="0.47"/>
</linearGradient>
<linearGradient id="paint36_linear_150_525" x1="710.812" y1="138.144" x2="758.189" y2="969.744" gradientUnits="userSpaceOnUse">
<stop offset="0.0104167" stop-color="#54C410" stop-opacity="0.2"/>
<stop offset="0.484375" stop-color="#00EBC1" stop-opacity="0.47"/>
</linearGradient>
<linearGradient id="paint37_linear_150_525" x1="713.032" y1="143.527" x2="760.41" y2="975.126" gradientUnits="userSpaceOnUse">
<stop offset="0.0104167" stop-color="#54C410" stop-opacity="0.2"/>
<stop offset="0.484375" stop-color="#00EBC1" stop-opacity="0.47"/>
</linearGradient>
<linearGradient id="paint38_linear_150_525" x1="715.253" y1="148.91" x2="762.631" y2="980.509" gradientUnits="userSpaceOnUse">
<stop offset="0.0104167" stop-color="#54C410" stop-opacity="0.2"/>
<stop offset="0.484375" stop-color="#00EBC1" stop-opacity="0.47"/>
</linearGradient>
<linearGradient id="paint39_linear_150_525" x1="717.474" y1="154.292" x2="764.851" y2="985.891" gradientUnits="userSpaceOnUse">
<stop offset="0.0104167" stop-color="#54C410" stop-opacity="0.2"/>
<stop offset="0.484375" stop-color="#00EBC1" stop-opacity="0.47"/>
</linearGradient>
<linearGradient id="paint40_linear_150_525" x1="719.69" y1="159.674" x2="767.068" y2="991.274" gradientUnits="userSpaceOnUse">
<stop offset="0.0104167" stop-color="#54C410" stop-opacity="0.2"/>
<stop offset="0.484375" stop-color="#00EBC1" stop-opacity="0.47"/>
</linearGradient>
<linearGradient id="paint41_linear_150_525" x1="721.908" y1="165.057" x2="769.286" y2="996.657" gradientUnits="userSpaceOnUse">
<stop offset="0.0104167" stop-color="#54C410" stop-opacity="0.2"/>
<stop offset="0.484375" stop-color="#00EBC1" stop-opacity="0.47"/>
</linearGradient>
<linearGradient id="paint42_linear_150_525" x1="724.13" y1="170.44" x2="771.508" y2="1002.04" gradientUnits="userSpaceOnUse">
<stop offset="0.0104167" stop-color="#54C410" stop-opacity="0.2"/>
<stop offset="0.484375" stop-color="#00EBC1" stop-opacity="0.47"/>
</linearGradient>
<linearGradient id="paint43_linear_150_525" x1="726.35" y1="175.822" x2="773.728" y2="1007.42" gradientUnits="userSpaceOnUse">
<stop offset="0.0104167" stop-color="#54C410" stop-opacity="0.2"/>
<stop offset="0.484375" stop-color="#00EBC1" stop-opacity="0.47"/>
</linearGradient>
</defs>
</svg>
