<svg width="1440" height="577" viewBox="0 0 1440 577" fill="none" xmlns="http://www.w3.org/2000/svg">
<path d="M31.1887 191.045C-2.15126 233.394 -10.2864 278.252 7.39999 322.217C25.0864 366.183 237.249 378.912 133.268 444.798C29.2878 510.683 283.929 512.002 383.353 534.011C482.777 556.02 575.703 568.501 707.109 571.825C838.514 575.149 934.256 567.439 1039.1 550.597C1143.94 533.755 1258.2 450.157 1258.2 450.157C1258.2 450.157 1380.59 328.759 1471.28 359.245C1561.96 389.73 1505.45 271.527 1484.11 227.795" stroke="url(#paint0_angular_150_476)" stroke-width="0.764552"/>
<path d="M29.3886 183.718C-3.95131 226.067 -12.0865 270.925 5.59994 314.89C23.2863 358.856 235.448 371.585 131.468 437.471C27.4877 503.356 282.129 504.675 381.553 526.684C480.977 548.693 573.903 561.174 705.309 564.498C836.714 567.822 932.456 560.112 1037.3 543.27C1142.14 526.428 1256.4 442.83 1256.4 442.83C1256.4 442.83 1378.79 321.432 1469.48 351.918C1560.16 382.403 1503.65 264.2 1482.31 220.468" stroke="url(#paint1_angular_150_476)" stroke-width="0.764552"/>
<path d="M27.591 176.389C-5.74892 218.738 -13.8841 263.596 3.80233 307.561C21.4887 351.527 233.651 364.256 129.67 430.142C25.6901 496.028 280.331 497.346 379.755 519.355C479.18 541.364 572.106 553.845 703.511 557.169C834.916 560.493 930.658 552.784 1035.5 535.941C1140.34 519.099 1254.61 435.501 1254.61 435.501C1254.61 435.501 1376.99 314.103 1467.68 344.589C1558.36 375.074 1501.85 256.872 1480.52 213.139" stroke="url(#paint2_angular_150_476)" stroke-width="0.764552"/>
<path d="M25.791 169.063C-7.54897 211.412 -15.6841 256.27 2.00228 300.236C19.6887 344.201 231.851 356.93 127.87 422.816C23.8901 488.702 278.531 490.02 377.955 512.029C477.38 534.038 570.306 546.519 701.711 549.843C833.116 553.167 928.858 545.458 1033.7 528.615C1138.54 511.773 1252.81 428.175 1252.81 428.175C1252.81 428.175 1375.19 306.777 1465.88 337.263C1556.56 367.749 1500.05 249.546 1478.72 205.813" stroke="url(#paint3_angular_150_476)" stroke-width="0.764552"/>
<path d="M23.9912 161.734C-9.34877 204.084 -17.4839 248.941 0.202476 292.907C17.8889 336.872 230.051 349.602 126.071 415.487C22.0903 481.373 276.731 482.691 376.156 504.7C475.58 526.709 568.506 539.19 699.911 542.514C831.316 545.838 927.058 538.129 1031.9 521.287C1136.74 504.444 1251.01 420.846 1251.01 420.846C1251.01 420.846 1373.39 299.448 1464.08 329.934C1554.77 360.42 1498.25 242.217 1476.92 198.485" stroke="url(#paint4_angular_150_476)" stroke-width="0.764552"/>
<path d="M22.1933 154.407C-11.1466 196.757 -19.2818 241.614 -1.59538 285.58C16.091 329.545 228.253 342.275 124.273 408.16C20.2924 474.046 274.934 475.364 374.358 497.373C473.782 519.382 566.708 531.864 698.113 535.187C829.518 538.511 925.26 530.802 1030.1 513.96C1134.95 497.118 1249.21 413.519 1249.21 413.519C1249.21 413.519 1371.59 292.121 1462.28 322.607C1552.97 353.093 1496.45 234.89 1475.12 191.158" stroke="url(#paint5_angular_150_476)" stroke-width="0.764552"/>
<path d="M20.3933 147.078C-12.9467 189.428 -21.0818 234.285 -3.39542 278.251C14.291 322.216 226.453 334.946 122.473 400.831C18.4924 466.717 273.133 468.036 372.558 490.044C471.982 512.053 564.908 524.535 696.313 527.858C827.718 531.182 923.46 523.473 1028.3 506.631C1133.15 489.789 1247.41 406.19 1247.41 406.19C1247.41 406.19 1369.79 284.793 1460.48 315.278C1551.17 345.764 1494.65 227.561 1473.32 183.829" stroke="url(#paint6_angular_150_476)" stroke-width="0.764552"/>
<path d="M18.5935 139.752C-14.7465 182.101 -22.8816 226.958 -5.19523 270.924C12.4912 314.89 224.653 327.619 120.673 393.504C16.6926 459.39 271.334 460.709 370.758 482.717C470.182 504.726 563.108 517.208 694.513 520.532C825.919 523.855 921.661 516.146 1026.5 499.304C1131.35 482.462 1245.61 398.864 1245.61 398.864C1245.61 398.864 1367.99 277.466 1458.68 307.951C1549.37 338.437 1492.85 220.234 1471.52 176.502" stroke="url(#paint7_angular_150_476)" stroke-width="0.764552"/>
<path d="M16.7956 132.426C-16.5443 174.775 -24.6795 219.633 -6.99308 263.598C10.6933 307.564 222.855 320.293 118.875 386.179C14.8947 452.064 269.536 453.383 368.96 475.392C468.384 497.4 561.31 509.882 692.716 513.206C824.121 516.529 919.863 508.82 1024.71 491.978C1129.55 475.136 1243.81 391.538 1243.81 391.538C1243.81 391.538 1366.2 270.14 1456.88 300.625C1547.57 331.111 1491.06 212.908 1469.72 169.176" stroke="url(#paint8_angular_150_476)" stroke-width="0.764552"/>
<path d="M14.9936 125.098C-18.3463 167.447 -26.4815 212.305 -8.79508 256.27C8.89132 300.236 221.053 312.965 117.073 378.851C13.0927 444.736 267.734 446.055 367.158 468.064C466.582 490.073 559.508 502.554 690.914 505.878C822.319 509.202 918.061 501.492 1022.9 484.65C1127.75 467.808 1242.01 384.21 1242.01 384.21C1242.01 384.21 1364.39 262.812 1455.08 293.298C1545.77 323.783 1489.25 205.58 1467.92 161.848" stroke="url(#paint9_angular_150_476)" stroke-width="0.764552"/>
<path d="M13.1936 117.769C-20.1464 160.118 -28.2815 204.976 -10.5951 248.941C7.09127 292.907 219.253 305.636 115.273 371.522C11.2927 437.407 265.934 438.726 365.358 460.735C464.782 482.744 557.708 495.225 689.114 498.549C820.519 501.873 916.261 494.163 1021.1 477.321C1125.95 460.479 1240.21 376.881 1240.21 376.881C1240.21 376.881 1362.59 255.483 1453.28 285.969C1543.97 316.454 1487.45 198.251 1466.12 154.519" stroke="url(#paint10_angular_150_476)" stroke-width="0.764552"/>
<path d="M11.3957 110.442C-21.9442 152.791 -30.0794 197.649 -12.393 241.614C5.29342 285.58 217.456 298.309 113.475 364.195C9.49481 430.081 264.136 431.399 363.56 453.408C462.984 475.417 555.911 487.898 687.316 491.222C818.721 494.546 914.463 486.836 1019.31 469.994C1124.15 453.152 1238.41 369.554 1238.41 369.554C1238.41 369.554 1360.8 248.156 1451.48 278.642C1542.17 309.127 1485.66 190.925 1464.32 147.192" stroke="url(#paint11_angular_150_476)" stroke-width="0.764552"/>
<path d="M9.59591 103.115C-23.744 145.464 -31.8792 190.322 -14.1928 234.288C3.49362 278.253 215.656 290.982 111.675 356.868C7.695 422.754 262.336 424.072 361.76 446.081C461.185 468.09 554.111 480.571 685.516 483.895C816.921 487.219 912.663 479.51 1017.51 462.667C1122.35 445.825 1236.61 362.227 1236.61 362.227C1236.61 362.227 1359 240.829 1449.68 271.315C1540.37 301.801 1483.86 183.598 1462.52 139.865" stroke="url(#paint12_angular_150_476)" stroke-width="0.764552"/>
<path d="M7.79586 95.7882C-25.5441 138.137 -33.6792 182.995 -15.9928 226.961C1.69357 270.926 213.856 283.656 109.875 349.541C5.89496 415.427 260.536 416.745 359.96 438.754C459.384 460.763 552.311 473.244 683.716 476.568C815.121 479.892 910.863 472.183 1015.71 455.341C1120.55 438.498 1234.81 354.9 1234.81 354.9C1234.81 354.9 1357.2 233.502 1447.88 263.988C1538.57 294.474 1482.06 176.271 1460.72 132.538" stroke="url(#paint13_angular_150_476)" stroke-width="0.764552"/>
<path d="M5.99801 88.4593C-27.3419 130.809 -35.4771 175.666 -17.7907 219.632C-0.104284 263.597 212.058 276.327 108.077 342.212C4.0971 408.098 258.738 409.416 358.162 431.425C457.587 453.434 550.513 465.916 681.918 469.239C813.323 472.563 909.065 464.854 1013.91 448.012C1118.75 431.17 1233.01 347.571 1233.01 347.571C1233.01 347.571 1355.4 226.173 1446.09 256.659C1536.77 287.145 1480.26 168.942 1458.92 125.21" stroke="url(#paint14_angular_150_476)" stroke-width="0.764552"/>
<path d="M4.19821 81.1324C-29.1417 123.482 -37.2769 168.339 -19.5905 212.305C-1.90409 256.27 210.258 269 106.278 334.885C2.2973 400.771 256.938 402.089 356.363 424.098C455.787 446.107 548.713 458.589 680.118 461.912C811.523 465.236 907.265 457.527 1012.11 440.685C1116.95 423.843 1231.21 340.244 1231.21 340.244C1231.21 340.244 1353.6 218.847 1444.29 249.332C1534.97 279.818 1478.46 161.615 1457.12 117.883" stroke="url(#paint15_angular_150_476)" stroke-width="0.764552"/>
<path d="M2.39816 73.8055C-30.9418 116.155 -39.0769 161.012 -21.3905 204.978C-3.70414 248.943 208.458 261.673 104.478 327.558C0.497251 393.444 255.138 394.763 354.563 416.771C453.987 438.78 546.913 451.262 678.318 454.586C809.723 457.909 905.465 450.2 1010.31 433.358C1115.15 416.516 1229.41 332.917 1229.41 332.917C1229.41 332.917 1351.8 211.52 1442.49 242.005C1533.17 272.491 1476.66 154.288 1455.32 110.556" stroke="url(#paint16_angular_150_476)" stroke-width="0.764552"/>
<path d="M0.600551 66.4766C-32.7394 108.826 -40.8746 153.684 -23.1881 197.649C-5.50174 241.615 206.66 254.344 102.68 320.23C-1.30036 386.115 253.341 387.434 352.765 409.443C452.189 431.451 545.115 443.933 676.521 447.257C807.926 450.58 903.668 442.871 1008.51 426.029C1113.35 409.187 1227.62 325.589 1227.62 325.589C1227.62 325.589 1350 204.191 1440.69 234.676C1531.37 265.162 1474.86 146.959 1453.53 103.227" stroke="url(#paint17_angular_150_476)" stroke-width="0.764552"/>
<path d="M-1.1995 59.1488C-34.5394 101.498 -42.6746 146.356 -24.9882 190.321C-7.30179 234.287 204.86 247.016 100.88 312.902C-3.10041 378.787 251.541 380.106 350.965 402.115C450.389 424.124 543.315 436.605 674.72 439.929C806.126 443.253 901.868 435.543 1006.71 418.701C1111.55 401.859 1225.82 318.261 1225.82 318.261C1225.82 318.261 1348.2 196.863 1438.89 227.349C1529.57 257.834 1473.06 139.631 1451.73 95.8991" stroke="url(#paint18_angular_150_476)" stroke-width="0.764552"/>
<path d="M-2.99955 51.8219C-36.3395 94.1712 -44.4747 139.029 -26.7882 182.994C-9.10184 226.96 203.06 239.689 99.0799 305.575C-4.90045 371.46 249.741 372.779 349.165 394.788C448.589 416.797 541.515 429.278 672.92 432.602C804.326 435.926 900.068 428.216 1004.91 411.374C1109.75 394.532 1224.02 310.934 1224.02 310.934C1224.02 310.934 1346.4 189.536 1437.09 220.022C1527.77 250.507 1471.26 132.304 1449.93 88.5722" stroke="url(#paint19_angular_150_476)" stroke-width="0.764552"/>
<path d="M-4.79715 44.495C-38.1371 86.8443 -46.2723 131.702 -28.5859 175.667C-10.8994 219.633 201.263 232.362 97.2823 298.248C-6.69806 364.133 247.943 365.452 347.367 387.461C446.791 409.47 539.718 421.951 671.123 425.275C802.528 428.599 898.27 420.889 1003.11 404.047C1107.96 387.205 1222.22 303.607 1222.22 303.607C1222.22 303.607 1344.6 182.209 1435.29 212.695C1525.98 243.18 1469.46 124.978 1448.13 81.2453" stroke="url(#paint20_angular_150_476)" stroke-width="0.764552"/>
<path d="M-6.5972 37.168C-39.9372 79.5173 -48.0723 124.375 -30.3859 168.341C-12.6995 212.306 199.463 225.035 95.4823 290.921C-8.49811 356.807 246.143 358.125 345.567 380.134C444.991 402.143 537.918 414.624 669.323 417.948C800.728 421.272 896.47 413.563 1001.31 396.72C1106.15 379.878 1220.42 296.28 1220.42 296.28C1220.42 296.28 1342.8 174.882 1433.49 205.368C1524.18 235.853 1467.66 117.651 1446.33 73.9184" stroke="url(#paint21_angular_150_476)" stroke-width="0.764552"/>
<path d="M-8.39701 29.8392C-41.737 72.1885 -49.8721 117.046 -32.1857 161.012C-14.4993 204.977 197.663 217.707 93.6825 283.592C-10.2979 349.478 244.343 350.796 343.767 372.805C443.192 394.814 536.118 407.295 667.523 410.619C798.928 413.943 894.67 406.234 999.513 389.392C1104.36 372.549 1218.62 288.951 1218.62 288.951C1218.62 288.951 1341 167.553 1431.69 198.039C1522.38 228.525 1465.86 110.322 1444.53 66.5895" stroke="url(#paint22_angular_150_476)" stroke-width="0.764552"/>
<path d="M-10.1971 22.5123C-43.537 64.8616 -51.6722 109.719 -33.9858 153.685C-16.2994 197.65 195.863 210.38 91.8824 276.265C-12.098 342.151 242.543 343.469 341.967 365.478C441.392 387.487 534.318 399.969 665.723 403.292C797.128 406.616 892.87 398.907 997.713 382.065C1102.56 365.223 1216.82 281.624 1216.82 281.624C1216.82 281.624 1339.2 160.226 1429.89 190.712C1520.58 221.198 1464.06 102.995 1442.73 59.2626" stroke="url(#paint23_angular_150_476)" stroke-width="0.764552"/>
<path d="M-11.9949 15.1844C-45.3349 57.5337 -53.47 102.391 -35.7836 146.357C-18.0972 190.322 194.065 203.052 90.0846 268.937C-13.8958 334.823 240.745 336.141 340.17 358.15C439.594 380.159 532.52 392.641 663.925 395.964C795.33 399.288 891.072 391.579 995.915 374.737C1100.76 357.895 1215.02 274.296 1215.02 274.296C1215.02 274.296 1337.41 152.899 1428.09 183.384C1518.78 213.87 1462.26 95.667 1440.93 51.9347" stroke="url(#paint24_angular_150_476)" stroke-width="0.764552"/>
<path d="M-13.7969 7.85848C-47.1369 50.2078 -55.272 95.0654 -37.5856 139.031C-19.8992 182.996 192.263 195.726 88.2825 261.611C-15.6978 327.497 238.943 328.816 338.368 350.824C437.792 372.833 530.718 385.315 662.123 388.639C793.528 391.962 889.27 384.253 994.113 367.411C1098.96 350.569 1213.22 266.97 1213.22 266.97C1213.22 266.97 1335.6 145.573 1426.29 176.058C1516.98 206.544 1460.46 88.341 1439.13 44.6088" stroke="url(#paint25_angular_150_476)" stroke-width="0.764552"/>
<path d="M-15.597 0.529621C-48.9369 42.8789 -57.0721 87.7366 -39.3857 131.702C-21.6993 175.668 190.463 188.397 86.4825 254.283C-17.4979 320.168 237.143 321.487 336.567 343.496C435.992 365.504 528.918 377.986 660.323 381.31C791.728 384.633 887.47 376.924 992.313 360.082C1097.16 343.24 1211.42 259.642 1211.42 259.642C1211.42 259.642 1333.8 138.244 1424.49 168.729C1515.18 199.215 1458.66 81.0122 1437.33 37.2799" stroke="url(#paint26_angular_150_476)" stroke-width="0.764552"/>
<defs>
<radialGradient id="paint0_angular_150_476" cx="0" cy="0" r="1" gradientUnits="userSpaceOnUse" gradientTransform="translate(747.848 279.708) rotate(-179.267) scale(749.59 292.826)">
<stop offset="0.0577155" stop-color="#C0EC12"/>
<stop offset="0.419439" stop-color="#00E0FF"/>
</radialGradient>
<radialGradient id="paint1_angular_150_476" cx="0" cy="0" r="1" gradientUnits="userSpaceOnUse" gradientTransform="translate(746.048 272.381) rotate(-179.267) scale(749.59 292.826)">
<stop offset="0.0577155" stop-color="#C0EC12"/>
<stop offset="0.419439" stop-color="#00E0FF"/>
</radialGradient>
<radialGradient id="paint2_angular_150_476" cx="0" cy="0" r="1" gradientUnits="userSpaceOnUse" gradientTransform="translate(744.251 265.052) rotate(-179.267) scale(749.59 292.826)">
<stop offset="0.0577155" stop-color="#C0EC12"/>
<stop offset="0.419439" stop-color="#00E0FF"/>
</radialGradient>
<radialGradient id="paint3_angular_150_476" cx="0" cy="0" r="1" gradientUnits="userSpaceOnUse" gradientTransform="translate(742.451 257.726) rotate(-179.267) scale(749.59 292.826)">
<stop offset="0.0577155" stop-color="#C0EC12"/>
<stop offset="0.419439" stop-color="#00E0FF"/>
</radialGradient>
<radialGradient id="paint4_angular_150_476" cx="0" cy="0" r="1" gradientUnits="userSpaceOnUse" gradientTransform="translate(740.651 250.397) rotate(-179.267) scale(749.59 292.826)">
<stop offset="0.0577155" stop-color="#C0EC12"/>
<stop offset="0.419439" stop-color="#00E0FF"/>
</radialGradient>
<radialGradient id="paint5_angular_150_476" cx="0" cy="0" r="1" gradientUnits="userSpaceOnUse" gradientTransform="translate(738.853 243.07) rotate(-179.267) scale(749.59 292.826)">
<stop offset="0.0577155" stop-color="#C0EC12"/>
<stop offset="0.419439" stop-color="#00E0FF"/>
</radialGradient>
<radialGradient id="paint6_angular_150_476" cx="0" cy="0" r="1" gradientUnits="userSpaceOnUse" gradientTransform="translate(737.053 235.741) rotate(-179.267) scale(749.59 292.826)">
<stop offset="0.0577155" stop-color="#C0EC12"/>
<stop offset="0.419439" stop-color="#00E0FF"/>
</radialGradient>
<radialGradient id="paint7_angular_150_476" cx="0" cy="0" r="1" gradientUnits="userSpaceOnUse" gradientTransform="translate(735.253 228.415) rotate(-179.267) scale(749.59 292.826)">
<stop offset="0.0577155" stop-color="#C0EC12"/>
<stop offset="0.419439" stop-color="#00E0FF"/>
</radialGradient>
<radialGradient id="paint8_angular_150_476" cx="0" cy="0" r="1" gradientUnits="userSpaceOnUse" gradientTransform="translate(733.455 221.089) rotate(-179.267) scale(749.59 292.826)">
<stop offset="0.0577155" stop-color="#C0EC12"/>
<stop offset="0.419439" stop-color="#00E0FF"/>
</radialGradient>
<radialGradient id="paint9_angular_150_476" cx="0" cy="0" r="1" gradientUnits="userSpaceOnUse" gradientTransform="translate(731.653 213.761) rotate(-179.267) scale(749.59 292.826)">
<stop offset="0.0577155" stop-color="#C0EC12"/>
<stop offset="0.419439" stop-color="#00E0FF"/>
</radialGradient>
<radialGradient id="paint10_angular_150_476" cx="0" cy="0" r="1" gradientUnits="userSpaceOnUse" gradientTransform="translate(729.853 206.432) rotate(-179.267) scale(749.59 292.826)">
<stop offset="0.0577155" stop-color="#C0EC12"/>
<stop offset="0.419439" stop-color="#00E0FF"/>
</radialGradient>
<radialGradient id="paint11_angular_150_476" cx="0" cy="0" r="1" gradientUnits="userSpaceOnUse" gradientTransform="translate(728.055 199.105) rotate(-179.267) scale(749.59 292.826)">
<stop offset="0.0577155" stop-color="#C0EC12"/>
<stop offset="0.419439" stop-color="#00E0FF"/>
</radialGradient>
<radialGradient id="paint12_angular_150_476" cx="0" cy="0" r="1" gradientUnits="userSpaceOnUse" gradientTransform="translate(726.256 191.778) rotate(-179.267) scale(749.59 292.826)">
<stop offset="0.0577155" stop-color="#C0EC12"/>
<stop offset="0.419439" stop-color="#00E0FF"/>
</radialGradient>
<radialGradient id="paint13_angular_150_476" cx="0" cy="0" r="1" gradientUnits="userSpaceOnUse" gradientTransform="translate(724.456 184.451) rotate(-179.267) scale(749.59 292.826)">
<stop offset="0.0577155" stop-color="#C0EC12"/>
<stop offset="0.419439" stop-color="#00E0FF"/>
</radialGradient>
<radialGradient id="paint14_angular_150_476" cx="0" cy="0" r="1" gradientUnits="userSpaceOnUse" gradientTransform="translate(722.658 177.122) rotate(-179.267) scale(749.59 292.826)">
<stop offset="0.0577155" stop-color="#C0EC12"/>
<stop offset="0.419439" stop-color="#00E0FF"/>
</radialGradient>
<radialGradient id="paint15_angular_150_476" cx="0" cy="0" r="1" gradientUnits="userSpaceOnUse" gradientTransform="translate(720.858 169.795) rotate(-179.267) scale(749.59 292.826)">
<stop offset="0.0577155" stop-color="#C0EC12"/>
<stop offset="0.419439" stop-color="#00E0FF"/>
</radialGradient>
<radialGradient id="paint16_angular_150_476" cx="0" cy="0" r="1" gradientUnits="userSpaceOnUse" gradientTransform="translate(719.058 162.469) rotate(-179.267) scale(749.59 292.826)">
<stop offset="0.0577155" stop-color="#C0EC12"/>
<stop offset="0.419439" stop-color="#00E0FF"/>
</radialGradient>
<radialGradient id="paint17_angular_150_476" cx="0" cy="0" r="1" gradientUnits="userSpaceOnUse" gradientTransform="translate(717.26 155.14) rotate(-179.267) scale(749.59 292.826)">
<stop offset="0.0577155" stop-color="#C0EC12"/>
<stop offset="0.419439" stop-color="#00E0FF"/>
</radialGradient>
<radialGradient id="paint18_angular_150_476" cx="0" cy="0" r="1" gradientUnits="userSpaceOnUse" gradientTransform="translate(715.46 147.812) rotate(-179.267) scale(749.59 292.826)">
<stop offset="0.0577155" stop-color="#C0EC12"/>
<stop offset="0.419439" stop-color="#00E0FF"/>
</radialGradient>
<radialGradient id="paint19_angular_150_476" cx="0" cy="0" r="1" gradientUnits="userSpaceOnUse" gradientTransform="translate(713.66 140.485) rotate(-179.267) scale(749.59 292.826)">
<stop offset="0.0577155" stop-color="#C0EC12"/>
<stop offset="0.419439" stop-color="#00E0FF"/>
</radialGradient>
<radialGradient id="paint20_angular_150_476" cx="0" cy="0" r="1" gradientUnits="userSpaceOnUse" gradientTransform="translate(711.863 133.158) rotate(-179.267) scale(749.59 292.826)">
<stop offset="0.0577155" stop-color="#C0EC12"/>
<stop offset="0.419439" stop-color="#00E0FF"/>
</radialGradient>
<radialGradient id="paint21_angular_150_476" cx="0" cy="0" r="1" gradientUnits="userSpaceOnUse" gradientTransform="translate(710.063 125.831) rotate(-179.267) scale(749.59 292.826)">
<stop offset="0.0577155" stop-color="#C0EC12"/>
<stop offset="0.419439" stop-color="#00E0FF"/>
</radialGradient>
<radialGradient id="paint22_angular_150_476" cx="0" cy="0" r="1" gradientUnits="userSpaceOnUse" gradientTransform="translate(708.263 118.502) rotate(-179.267) scale(749.59 292.826)">
<stop offset="0.0577155" stop-color="#C0EC12"/>
<stop offset="0.419439" stop-color="#00E0FF"/>
</radialGradient>
<radialGradient id="paint23_angular_150_476" cx="0" cy="0" r="1" gradientUnits="userSpaceOnUse" gradientTransform="translate(706.463 111.175) rotate(-179.267) scale(749.59 292.826)">
<stop offset="0.0577155" stop-color="#C0EC12"/>
<stop offset="0.419439" stop-color="#00E0FF"/>
</radialGradient>
<radialGradient id="paint24_angular_150_476" cx="0" cy="0" r="1" gradientUnits="userSpaceOnUse" gradientTransform="translate(704.665 103.847) rotate(-179.267) scale(749.59 292.826)">
<stop offset="0.0577155" stop-color="#C0EC12"/>
<stop offset="0.419439" stop-color="#00E0FF"/>
</radialGradient>
<radialGradient id="paint25_angular_150_476" cx="0" cy="0" r="1" gradientUnits="userSpaceOnUse" gradientTransform="translate(702.863 96.5215) rotate(-179.267) scale(749.59 292.826)">
<stop offset="0.0577155" stop-color="#C0EC12"/>
<stop offset="0.419439" stop-color="#00E0FF"/>
</radialGradient>
<radialGradient id="paint26_angular_150_476" cx="0" cy="0" r="1" gradientUnits="userSpaceOnUse" gradientTransform="translate(701.063 89.1927) rotate(-179.267) scale(749.59 292.826)">
<stop offset="0.0577155" stop-color="#C0EC12"/>
<stop offset="0.419439" stop-color="#00E0FF"/>
</radialGradient>
</defs>
</svg>
