<svg width="360" height="358" viewBox="0 0 360 358" fill="none" xmlns="http://www.w3.org/2000/svg">
<path d="M-77.5815 1C-77.5815 1 -32.9877 68.0377 19.9886 76.8323C72.9648 85.6269 136.452 159.354 174.412 172.875C250.356 199.926 287.982 182.055 320.569 190.074C353.157 198.094 445.981 303.518 445.981 303.518" stroke="url(#paint0_linear_330_2954)" stroke-width="0.341011"/>
<path d="M-78.2637 2.70508C-78.2637 2.70508 -33.6698 69.7428 19.3064 78.5374C72.2827 87.332 135.77 161.059 173.73 174.58C249.674 201.631 287.3 183.76 319.887 191.779C352.474 199.799 445.299 305.223 445.299 305.223" stroke="url(#paint1_linear_330_2954)" stroke-width="0.341011"/>
<path d="M-78.9458 4.75122C-78.9458 4.75122 -34.3519 71.7889 18.6243 80.5835C71.6005 89.3781 135.088 163.106 173.048 176.627C248.992 203.677 286.618 185.806 319.205 193.826C351.792 201.845 444.617 307.27 444.617 307.27" stroke="url(#paint2_linear_330_2954)" stroke-width="0.341011"/>
<path d="M-79.6274 6.45605C-79.6274 6.45605 -35.0336 73.4937 17.9427 82.2884C70.9189 91.083 134.406 164.81 172.366 178.331C248.31 205.382 285.936 187.511 318.524 195.53C351.111 203.55 443.935 308.974 443.935 308.974" stroke="url(#paint3_linear_330_2954)" stroke-width="0.341011"/>
<path d="M-80.3096 8.5022C-80.3096 8.5022 -35.7157 75.5399 17.2605 84.3345C70.2368 93.1291 133.724 166.857 171.684 180.377C247.628 207.428 285.254 189.557 317.841 197.577C350.429 205.596 443.253 311.021 443.253 311.021" stroke="url(#paint4_linear_330_2954)" stroke-width="0.341011"/>
<path d="M-80.9917 10.2073C-80.9917 10.2073 -36.3978 77.245 16.5784 86.0396C69.5546 94.8342 133.042 168.562 171.002 182.083C246.946 209.133 284.572 191.262 317.159 199.282C349.746 207.301 442.571 312.726 442.571 312.726" stroke="url(#paint5_linear_330_2954)" stroke-width="0.341011"/>
<path d="M-81.6738 12.2534C-81.6738 12.2534 -37.08 79.2911 15.8963 88.0857C68.8725 96.8803 132.36 170.608 170.32 184.129C246.264 211.179 283.89 193.308 316.477 201.328C349.064 209.347 441.889 314.772 441.889 314.772" stroke="url(#paint6_linear_330_2954)" stroke-width="0.341011"/>
<path d="M-82.356 13.9583C-82.356 13.9583 -37.7621 80.9959 15.2141 89.7905C68.1904 98.5852 131.678 172.313 169.638 185.834C245.582 212.884 283.208 195.013 315.795 203.033C348.382 211.052 441.206 316.477 441.206 316.477" stroke="url(#paint7_linear_330_2954)" stroke-width="0.341011"/>
<path d="M-83.0381 15.6636C-83.0381 15.6636 -38.4442 82.7013 14.532 91.4959C67.5083 100.29 130.996 174.018 168.955 187.539C244.899 214.59 282.526 196.718 315.113 204.738C347.7 212.758 440.524 318.182 440.524 318.182" stroke="url(#paint8_linear_330_2954)" stroke-width="0.341011"/>
<path d="M-83.7197 17.7097C-83.7197 17.7097 -39.1259 84.7474 13.8504 93.542C66.8266 102.337 130.314 176.064 168.274 189.585C244.218 216.636 281.844 198.764 314.431 206.784C347.018 214.804 439.843 320.228 439.843 320.228" stroke="url(#paint9_linear_330_2954)" stroke-width="0.341011"/>
<path d="M-83.7197 20.0967C-83.7197 20.0967 -39.1303 87.1342 13.8454 95.9288C66.8212 104.723 130.304 178.451 168.263 191.972C244.205 219.022 281.833 201.151 314.419 209.171C347.006 217.19 439.823 322.614 439.823 322.614" stroke="url(#paint10_linear_330_2954)" stroke-width="0.341011"/>
<path d="M-85.084 21.4607C-85.084 21.4607 -40.4901 88.4984 12.4861 97.293C65.4624 106.088 128.95 179.815 166.91 193.336C242.854 220.387 280.48 202.515 313.067 210.535C345.654 218.555 438.478 323.979 438.478 323.979" stroke="url(#paint11_linear_330_2954)" stroke-width="0.341011"/>
<path d="M-85.7661 23.1658C-85.7661 23.1658 -41.1723 90.2035 11.804 98.9981C64.7802 107.793 128.268 181.52 166.227 195.041C242.171 222.092 279.798 204.22 312.385 212.24C344.972 220.26 437.796 325.684 437.796 325.684" stroke="url(#paint12_linear_330_2954)" stroke-width="0.341011"/>
<path d="M-86.7886 25.2119C-86.7886 25.2119 -42.1947 92.2496 10.7815 101.044C63.7578 109.839 127.245 183.566 165.205 197.087C241.149 224.138 278.775 206.267 311.362 214.286C343.95 222.306 436.774 327.73 436.774 327.73" stroke="url(#paint13_linear_330_2954)" stroke-width="0.341011"/>
<path d="M-87.4707 26.917C-87.4707 26.917 -42.8769 93.9547 10.0994 102.749C63.0756 111.544 126.563 185.271 164.523 198.792C240.467 225.843 278.093 207.972 310.68 215.991C343.267 224.011 436.092 329.435 436.092 329.435" stroke="url(#paint14_linear_330_2954)" stroke-width="0.341011"/>
<path d="M-88.1533 28.9629C-88.1533 28.9629 -43.5595 96.0006 9.41677 104.795C62.393 113.59 125.881 187.317 163.84 200.838C239.784 227.889 277.41 210.018 309.998 218.037C342.585 226.057 435.409 331.481 435.409 331.481" stroke="url(#paint15_linear_330_2954)" stroke-width="0.341011"/>
<path d="M-88.8345 30.668C-88.8345 30.668 -44.2406 97.7057 8.73562 106.5C61.7119 115.295 125.199 189.022 163.159 202.543C239.103 229.594 276.729 211.723 309.317 219.742C341.904 227.762 434.728 333.186 434.728 333.186" stroke="url(#paint16_linear_330_2954)" stroke-width="0.341011"/>
<path d="M-89.5171 32.373C-89.5171 32.373 -44.9232 99.4107 8.053 108.205C61.0292 117 124.517 190.727 162.476 204.248C238.42 231.299 276.047 213.428 308.634 221.447C341.221 229.467 434.045 334.891 434.045 334.891" stroke="url(#paint17_linear_330_2954)" stroke-width="0.341011"/>
<path d="M-90.1987 34.4192C-90.1987 34.4192 -45.6049 101.457 7.37136 110.251C60.3476 119.046 123.835 192.773 161.795 206.294C237.739 233.345 275.365 215.474 307.952 223.494C340.539 231.513 433.364 336.938 433.364 336.938" stroke="url(#paint18_linear_330_2954)" stroke-width="0.341011"/>
<path d="M-90.8813 36.124C-90.8813 36.124 -46.2875 103.162 6.68875 111.956C59.665 120.751 123.153 194.478 161.112 207.999C237.056 235.05 274.682 217.179 307.27 225.198C339.857 233.218 432.681 338.642 432.681 338.642" stroke="url(#paint19_linear_330_2954)" stroke-width="0.341011"/>
<path d="M430.185 3.04614C430.185 3.04614 386.87 70.8463 334.066 80.5635C281.262 90.2807 219.182 165.099 181.483 179.279C106.061 207.649 68.0985 190.439 35.667 199.025C3.23544 207.612 -87.5755 314.631 -87.5755 314.631" stroke="url(#paint20_linear_330_2954)" stroke-width="0.341011"/>
<path d="M430.866 5.09229C430.866 5.09229 387.551 72.8924 334.747 82.6096C281.943 92.3269 219.864 167.145 182.165 181.325C106.743 209.695 68.7802 192.485 36.3486 201.071C3.91708 209.658 -86.8939 316.678 -86.8939 316.678" stroke="url(#paint21_linear_330_2954)" stroke-width="0.341011"/>
<path d="M431.548 6.79712C431.548 6.79712 388.233 74.5972 335.429 84.3145C282.626 94.0317 220.546 168.85 182.847 183.03C107.425 211.4 69.4623 194.19 37.0307 202.776C4.59921 211.363 -86.2118 318.382 -86.2118 318.382" stroke="url(#paint22_linear_330_2954)" stroke-width="0.341011"/>
<path d="M432.23 8.84326C432.23 8.84326 388.915 76.6434 336.112 86.3606C283.308 96.0778 221.228 170.896 183.529 185.076C108.107 213.446 70.1444 196.236 37.7129 204.822C5.28133 213.409 -85.5296 320.429 -85.5296 320.429" stroke="url(#paint23_linear_330_2954)" stroke-width="0.341011"/>
<path d="M432.913 10.5483C432.913 10.5483 389.598 78.3485 336.794 88.0657C283.99 97.7829 221.91 172.601 184.211 186.781C108.789 215.151 70.8265 197.941 38.395 206.528C5.96346 215.114 -84.8475 322.134 -84.8475 322.134" stroke="url(#paint24_linear_330_2954)" stroke-width="0.341011"/>
<path d="M433.936 12.2532C433.936 12.2532 390.62 80.0533 337.817 89.7705C285.013 99.4878 222.933 174.306 185.234 188.486C109.812 216.856 71.8495 199.646 39.418 208.232C6.98641 216.819 -83.8246 323.838 -83.8246 323.838" stroke="url(#paint25_linear_330_2954)" stroke-width="0.341011"/>
<path d="M434.618 14.2993C434.618 14.2993 391.303 82.0994 338.499 91.8167C285.695 101.534 223.615 176.352 185.916 190.532C110.494 218.902 72.5316 201.692 40.1001 210.278C7.66854 218.865 -83.1424 325.885 -83.1424 325.885" stroke="url(#paint26_linear_330_2954)" stroke-width="0.341011"/>
<path d="M435.3 16.0044C435.3 16.0044 391.985 83.8045 339.181 93.5217C286.377 103.239 224.297 178.057 186.598 192.237C111.176 220.607 73.2137 203.397 40.7822 211.984C8.35067 220.57 -82.4603 327.59 -82.4603 327.59" stroke="url(#paint27_linear_330_2954)" stroke-width="0.341011"/>
<path d="M435.982 18.0505C435.982 18.0505 392.667 85.8507 339.863 95.5679C287.059 105.285 224.979 180.103 187.281 194.284C111.858 222.653 73.8959 205.443 41.4643 214.03C9.0328 222.616 -81.7782 329.636 -81.7782 329.636" stroke="url(#paint28_linear_330_2954)" stroke-width="0.341011"/>
<path d="M437.005 19.7559C437.005 19.7559 393.69 87.556 340.886 97.2732C288.082 106.99 226.002 181.808 188.303 195.989C112.881 224.359 74.9188 207.148 42.4873 215.735C10.0557 224.322 -80.7552 331.341 -80.7552 331.341" stroke="url(#paint29_linear_330_2954)" stroke-width="0.341011"/>
<path d="M437.687 21.4607C437.687 21.4607 394.372 89.2608 341.568 98.978C328.738 101.339 315.36 107.544 301.918 115.788C260.036 141.474 217.524 186.959 188.986 197.694C113.563 226.064 75.601 208.853 43.1694 217.44C10.7379 226.026 -80.0731 333.046 -80.0731 333.046" stroke="url(#paint30_linear_330_2954)" stroke-width="0.341011"/>
<path d="M438.369 23.5068C438.369 23.5068 395.054 91.307 342.25 101.024C289.446 110.741 227.367 185.559 189.668 199.74C114.245 228.11 76.2831 210.899 43.8515 219.486C11.42 228.073 -79.391 335.092 -79.391 335.092" stroke="url(#paint31_linear_330_2954)" stroke-width="0.341011"/>
<path d="M439.051 25.2119C439.051 25.2119 395.736 93.012 342.932 102.729C290.128 112.446 228.048 187.265 190.349 201.445C114.927 229.815 76.9647 212.604 44.5332 221.191C12.1016 229.778 -78.7093 336.797 -78.7093 336.797" stroke="url(#paint32_linear_330_2954)" stroke-width="0.341011"/>
<path d="M439.733 26.917C439.733 26.917 396.418 94.7171 343.614 104.434C290.81 114.152 228.73 188.97 191.031 203.15C115.609 231.52 77.6469 214.31 45.2153 222.896C12.7838 231.483 -78.0272 338.502 -78.0272 338.502" stroke="url(#paint33_linear_330_2954)" stroke-width="0.341011"/>
<path d="M440.756 28.9629C440.756 28.9629 397.441 96.763 344.637 106.48C291.833 116.197 229.753 191.016 192.054 205.196C116.632 233.566 78.6698 216.355 46.2383 224.942C13.8067 233.529 -77.0042 340.548 -77.0042 340.548" stroke="url(#paint34_linear_330_2954)" stroke-width="0.341011"/>
<path d="M441.438 30.668C441.438 30.668 398.123 98.4681 345.319 108.185C292.515 117.903 230.435 192.721 192.737 206.901C117.314 235.271 79.3519 218.061 46.9204 226.647C14.4889 235.234 -76.3221 342.253 -76.3221 342.253" stroke="url(#paint35_linear_330_2954)" stroke-width="0.341011"/>
<path d="M442.12 32.7141C442.12 32.7141 398.805 100.514 346.001 110.231C293.197 119.949 231.117 194.767 193.418 208.947C117.996 237.317 80.0336 220.107 47.602 228.693C15.1705 237.28 -75.6405 344.299 -75.6405 344.299" stroke="url(#paint36_linear_330_2954)" stroke-width="0.341011"/>
<path d="M442.802 34.4192C442.802 34.4192 399.487 102.219 346.683 111.937C293.879 121.654 231.799 196.472 194.1 210.652C118.678 239.022 80.7157 221.812 48.2842 230.398C15.8526 238.985 -74.9583 346.004 -74.9583 346.004" stroke="url(#paint37_linear_330_2954)" stroke-width="0.341011"/>
<path d="M443.825 36.124C443.825 36.124 400.51 103.924 347.706 113.641C294.902 123.359 232.822 198.177 195.123 212.357C119.701 240.727 81.7386 223.517 49.3071 232.103C16.8756 240.69 -73.9354 347.709 -73.9354 347.709" stroke="url(#paint38_linear_330_2954)" stroke-width="0.341011"/>
<path d="M444.507 38.1702C444.507 38.1702 401.192 105.97 348.388 115.688C295.584 125.405 233.504 200.223 195.805 214.403C120.383 242.773 82.4208 225.563 49.9892 234.149C17.5577 242.736 -73.2533 349.755 -73.2533 349.755" stroke="url(#paint39_linear_330_2954)" stroke-width="0.341011"/>
<path d="M445.189 39.8752C445.189 39.8752 401.874 107.675 349.07 117.393C296.266 127.11 234.186 201.928 196.488 216.108C121.065 244.478 83.1029 227.268 50.6714 235.854C18.2398 244.441 -72.5711 351.46 -72.5711 351.46" stroke="url(#paint40_linear_330_2954)" stroke-width="0.341011"/>
<path d="M445.871 41.9214C445.871 41.9214 402.556 109.722 349.752 119.439C296.948 129.156 234.869 203.974 197.17 218.154C121.747 246.524 83.785 229.314 51.3535 237.901C18.922 246.487 -71.889 353.507 -71.889 353.507" stroke="url(#paint41_linear_330_2954)" stroke-width="0.341011"/>
<path d="M446.553 43.6262C446.553 43.6262 403.238 111.426 350.434 121.144C297.63 130.861 235.55 205.679 197.851 219.859C122.429 248.229 84.4667 231.019 52.0351 239.605C19.6036 248.192 -71.2074 355.211 -71.2074 355.211" stroke="url(#paint42_linear_330_2954)" stroke-width="0.341011"/>
<path d="M447.576 45.3315C447.576 45.3315 404.261 113.132 351.457 122.849C298.653 132.566 236.574 207.384 198.875 221.565C123.452 249.934 85.4901 232.724 53.0586 241.311C20.627 249.897 -70.1839 356.917 -70.1839 356.917" stroke="url(#paint43_linear_330_2954)" stroke-width="0.341011"/>
<defs>
<linearGradient id="paint0_linear_330_2954" x1="189.438" y1="10.3245" x2="179.525" y2="294.213" gradientUnits="userSpaceOnUse">
<stop offset="0.0104167" stop-color="#54C410" stop-opacity="0.2"/>
<stop offset="0.484375" stop-color="#00EBC1" stop-opacity="0.47"/>
</linearGradient>
<linearGradient id="paint1_linear_330_2954" x1="188.756" y1="12.0296" x2="178.842" y2="295.919" gradientUnits="userSpaceOnUse">
<stop offset="0.0104167" stop-color="#54C410" stop-opacity="0.2"/>
<stop offset="0.484375" stop-color="#00EBC1" stop-opacity="0.47"/>
</linearGradient>
<linearGradient id="paint2_linear_330_2954" x1="188.074" y1="14.0758" x2="178.16" y2="297.965" gradientUnits="userSpaceOnUse">
<stop offset="0.0104167" stop-color="#54C410" stop-opacity="0.2"/>
<stop offset="0.484375" stop-color="#00EBC1" stop-opacity="0.47"/>
</linearGradient>
<linearGradient id="paint3_linear_330_2954" x1="187.392" y1="15.7806" x2="177.479" y2="299.67" gradientUnits="userSpaceOnUse">
<stop offset="0.0104167" stop-color="#54C410" stop-opacity="0.2"/>
<stop offset="0.484375" stop-color="#00EBC1" stop-opacity="0.47"/>
</linearGradient>
<linearGradient id="paint4_linear_330_2954" x1="186.71" y1="17.8267" x2="176.797" y2="301.716" gradientUnits="userSpaceOnUse">
<stop offset="0.0104167" stop-color="#54C410" stop-opacity="0.2"/>
<stop offset="0.484375" stop-color="#00EBC1" stop-opacity="0.47"/>
</linearGradient>
<linearGradient id="paint5_linear_330_2954" x1="186.028" y1="19.5318" x2="176.114" y2="303.421" gradientUnits="userSpaceOnUse">
<stop offset="0.0104167" stop-color="#54C410" stop-opacity="0.2"/>
<stop offset="0.484375" stop-color="#00EBC1" stop-opacity="0.47"/>
</linearGradient>
<linearGradient id="paint6_linear_330_2954" x1="185.346" y1="21.578" x2="175.432" y2="305.467" gradientUnits="userSpaceOnUse">
<stop offset="0.0104167" stop-color="#54C410" stop-opacity="0.2"/>
<stop offset="0.484375" stop-color="#00EBC1" stop-opacity="0.47"/>
</linearGradient>
<linearGradient id="paint7_linear_330_2954" x1="184.664" y1="23.2828" x2="174.75" y2="307.172" gradientUnits="userSpaceOnUse">
<stop offset="0.0104167" stop-color="#54C410" stop-opacity="0.2"/>
<stop offset="0.484375" stop-color="#00EBC1" stop-opacity="0.47"/>
</linearGradient>
<linearGradient id="paint8_linear_330_2954" x1="183.982" y1="24.9881" x2="174.068" y2="308.877" gradientUnits="userSpaceOnUse">
<stop offset="0.0104167" stop-color="#54C410" stop-opacity="0.2"/>
<stop offset="0.484375" stop-color="#00EBC1" stop-opacity="0.47"/>
</linearGradient>
<linearGradient id="paint9_linear_330_2954" x1="183.3" y1="27.0343" x2="173.386" y2="310.923" gradientUnits="userSpaceOnUse">
<stop offset="0.0104167" stop-color="#54C410" stop-opacity="0.2"/>
<stop offset="0.484375" stop-color="#00EBC1" stop-opacity="0.47"/>
</linearGradient>
<linearGradient id="paint10_linear_330_2954" x1="183.3" y1="29.4212" x2="173.386" y2="313.31" gradientUnits="userSpaceOnUse">
<stop offset="0.0104167" stop-color="#54C410" stop-opacity="0.2"/>
<stop offset="0.484375" stop-color="#00EBC1" stop-opacity="0.47"/>
</linearGradient>
<linearGradient id="paint11_linear_330_2954" x1="181.936" y1="30.7852" x2="172.022" y2="314.674" gradientUnits="userSpaceOnUse">
<stop offset="0.0104167" stop-color="#54C410" stop-opacity="0.2"/>
<stop offset="0.484375" stop-color="#00EBC1" stop-opacity="0.47"/>
</linearGradient>
<linearGradient id="paint12_linear_330_2954" x1="181.254" y1="32.4903" x2="171.34" y2="316.379" gradientUnits="userSpaceOnUse">
<stop offset="0.0104167" stop-color="#54C410" stop-opacity="0.2"/>
<stop offset="0.484375" stop-color="#00EBC1" stop-opacity="0.47"/>
</linearGradient>
<linearGradient id="paint13_linear_330_2954" x1="180.231" y1="34.5364" x2="170.318" y2="318.425" gradientUnits="userSpaceOnUse">
<stop offset="0.0104167" stop-color="#54C410" stop-opacity="0.2"/>
<stop offset="0.484375" stop-color="#00EBC1" stop-opacity="0.47"/>
</linearGradient>
<linearGradient id="paint14_linear_330_2954" x1="179.549" y1="36.2415" x2="169.635" y2="320.13" gradientUnits="userSpaceOnUse">
<stop offset="0.0104167" stop-color="#54C410" stop-opacity="0.2"/>
<stop offset="0.484375" stop-color="#00EBC1" stop-opacity="0.47"/>
</linearGradient>
<linearGradient id="paint15_linear_330_2954" x1="178.866" y1="38.2874" x2="168.953" y2="322.176" gradientUnits="userSpaceOnUse">
<stop offset="0.0104167" stop-color="#54C410" stop-opacity="0.2"/>
<stop offset="0.484375" stop-color="#00EBC1" stop-opacity="0.47"/>
</linearGradient>
<linearGradient id="paint16_linear_330_2954" x1="178.185" y1="39.9925" x2="168.272" y2="323.881" gradientUnits="userSpaceOnUse">
<stop offset="0.0104167" stop-color="#54C410" stop-opacity="0.2"/>
<stop offset="0.484375" stop-color="#00EBC1" stop-opacity="0.47"/>
</linearGradient>
<linearGradient id="paint17_linear_330_2954" x1="177.503" y1="41.6976" x2="167.589" y2="325.587" gradientUnits="userSpaceOnUse">
<stop offset="0.0104167" stop-color="#54C410" stop-opacity="0.2"/>
<stop offset="0.484375" stop-color="#00EBC1" stop-opacity="0.47"/>
</linearGradient>
<linearGradient id="paint18_linear_330_2954" x1="176.821" y1="43.7437" x2="166.907" y2="327.633" gradientUnits="userSpaceOnUse">
<stop offset="0.0104167" stop-color="#54C410" stop-opacity="0.2"/>
<stop offset="0.484375" stop-color="#00EBC1" stop-opacity="0.47"/>
</linearGradient>
<linearGradient id="paint19_linear_330_2954" x1="176.138" y1="45.4486" x2="166.225" y2="329.338" gradientUnits="userSpaceOnUse">
<stop offset="0.0104167" stop-color="#54C410" stop-opacity="0.2"/>
<stop offset="0.484375" stop-color="#00EBC1" stop-opacity="0.47"/>
</linearGradient>
<linearGradient id="paint20_linear_330_2954" x1="163.368" y1="17.0294" x2="178.235" y2="300.701" gradientUnits="userSpaceOnUse">
<stop offset="0.0104167" stop-color="#54C410" stop-opacity="0.2"/>
<stop offset="0.484375" stop-color="#00EBC1" stop-opacity="0.47"/>
</linearGradient>
<linearGradient id="paint21_linear_330_2954" x1="164.05" y1="19.0755" x2="178.916" y2="302.747" gradientUnits="userSpaceOnUse">
<stop offset="0.0104167" stop-color="#54C410" stop-opacity="0.2"/>
<stop offset="0.484375" stop-color="#00EBC1" stop-opacity="0.47"/>
</linearGradient>
<linearGradient id="paint22_linear_330_2954" x1="164.732" y1="20.7804" x2="179.599" y2="304.452" gradientUnits="userSpaceOnUse">
<stop offset="0.0104167" stop-color="#54C410" stop-opacity="0.2"/>
<stop offset="0.484375" stop-color="#00EBC1" stop-opacity="0.47"/>
</linearGradient>
<linearGradient id="paint23_linear_330_2954" x1="165.414" y1="22.8265" x2="180.281" y2="306.498" gradientUnits="userSpaceOnUse">
<stop offset="0.0104167" stop-color="#54C410" stop-opacity="0.2"/>
<stop offset="0.484375" stop-color="#00EBC1" stop-opacity="0.47"/>
</linearGradient>
<linearGradient id="paint24_linear_330_2954" x1="166.096" y1="24.5316" x2="180.963" y2="308.203" gradientUnits="userSpaceOnUse">
<stop offset="0.0104167" stop-color="#54C410" stop-opacity="0.2"/>
<stop offset="0.484375" stop-color="#00EBC1" stop-opacity="0.47"/>
</linearGradient>
<linearGradient id="paint25_linear_330_2954" x1="167.119" y1="26.2364" x2="181.986" y2="309.908" gradientUnits="userSpaceOnUse">
<stop offset="0.0104167" stop-color="#54C410" stop-opacity="0.2"/>
<stop offset="0.484375" stop-color="#00EBC1" stop-opacity="0.47"/>
</linearGradient>
<linearGradient id="paint26_linear_330_2954" x1="167.801" y1="28.2826" x2="182.668" y2="311.954" gradientUnits="userSpaceOnUse">
<stop offset="0.0104167" stop-color="#54C410" stop-opacity="0.2"/>
<stop offset="0.484375" stop-color="#00EBC1" stop-opacity="0.47"/>
</linearGradient>
<linearGradient id="paint27_linear_330_2954" x1="168.483" y1="29.9876" x2="183.35" y2="313.659" gradientUnits="userSpaceOnUse">
<stop offset="0.0104167" stop-color="#54C410" stop-opacity="0.2"/>
<stop offset="0.484375" stop-color="#00EBC1" stop-opacity="0.47"/>
</linearGradient>
<linearGradient id="paint28_linear_330_2954" x1="169.166" y1="32.0338" x2="184.032" y2="315.705" gradientUnits="userSpaceOnUse">
<stop offset="0.0104167" stop-color="#54C410" stop-opacity="0.2"/>
<stop offset="0.484375" stop-color="#00EBC1" stop-opacity="0.47"/>
</linearGradient>
<linearGradient id="paint29_linear_330_2954" x1="170.189" y1="33.7391" x2="185.055" y2="317.411" gradientUnits="userSpaceOnUse">
<stop offset="0.0104167" stop-color="#54C410" stop-opacity="0.2"/>
<stop offset="0.484375" stop-color="#00EBC1" stop-opacity="0.47"/>
</linearGradient>
<linearGradient id="paint30_linear_330_2954" x1="170.871" y1="35.4439" x2="185.737" y2="319.115" gradientUnits="userSpaceOnUse">
<stop offset="0.0104167" stop-color="#54C410" stop-opacity="0.2"/>
<stop offset="0.484375" stop-color="#00EBC1" stop-opacity="0.47"/>
</linearGradient>
<linearGradient id="paint31_linear_330_2954" x1="171.553" y1="37.4901" x2="186.419" y2="321.162" gradientUnits="userSpaceOnUse">
<stop offset="0.0104167" stop-color="#54C410" stop-opacity="0.2"/>
<stop offset="0.484375" stop-color="#00EBC1" stop-opacity="0.47"/>
</linearGradient>
<linearGradient id="paint32_linear_330_2954" x1="172.234" y1="39.1952" x2="187.101" y2="322.867" gradientUnits="userSpaceOnUse">
<stop offset="0.0104167" stop-color="#54C410" stop-opacity="0.2"/>
<stop offset="0.484375" stop-color="#00EBC1" stop-opacity="0.47"/>
</linearGradient>
<linearGradient id="paint33_linear_330_2954" x1="172.917" y1="40.9002" x2="187.783" y2="324.572" gradientUnits="userSpaceOnUse">
<stop offset="0.0104167" stop-color="#54C410" stop-opacity="0.2"/>
<stop offset="0.484375" stop-color="#00EBC1" stop-opacity="0.47"/>
</linearGradient>
<linearGradient id="paint34_linear_330_2954" x1="173.94" y1="42.9461" x2="188.806" y2="326.618" gradientUnits="userSpaceOnUse">
<stop offset="0.0104167" stop-color="#54C410" stop-opacity="0.2"/>
<stop offset="0.484375" stop-color="#00EBC1" stop-opacity="0.47"/>
</linearGradient>
<linearGradient id="paint35_linear_330_2954" x1="174.622" y1="44.6512" x2="189.488" y2="328.323" gradientUnits="userSpaceOnUse">
<stop offset="0.0104167" stop-color="#54C410" stop-opacity="0.2"/>
<stop offset="0.484375" stop-color="#00EBC1" stop-opacity="0.47"/>
</linearGradient>
<linearGradient id="paint36_linear_330_2954" x1="175.303" y1="46.6974" x2="190.17" y2="330.369" gradientUnits="userSpaceOnUse">
<stop offset="0.0104167" stop-color="#54C410" stop-opacity="0.2"/>
<stop offset="0.484375" stop-color="#00EBC1" stop-opacity="0.47"/>
</linearGradient>
<linearGradient id="paint37_linear_330_2954" x1="175.985" y1="48.4024" x2="190.852" y2="332.074" gradientUnits="userSpaceOnUse">
<stop offset="0.0104167" stop-color="#54C410" stop-opacity="0.2"/>
<stop offset="0.484375" stop-color="#00EBC1" stop-opacity="0.47"/>
</linearGradient>
<linearGradient id="paint38_linear_330_2954" x1="177.008" y1="50.1073" x2="191.875" y2="333.779" gradientUnits="userSpaceOnUse">
<stop offset="0.0104167" stop-color="#54C410" stop-opacity="0.2"/>
<stop offset="0.484375" stop-color="#00EBC1" stop-opacity="0.47"/>
</linearGradient>
<linearGradient id="paint39_linear_330_2954" x1="177.691" y1="52.1534" x2="192.557" y2="335.825" gradientUnits="userSpaceOnUse">
<stop offset="0.0104167" stop-color="#54C410" stop-opacity="0.2"/>
<stop offset="0.484375" stop-color="#00EBC1" stop-opacity="0.47"/>
</linearGradient>
<linearGradient id="paint40_linear_330_2954" x1="178.373" y1="53.8585" x2="193.239" y2="337.53" gradientUnits="userSpaceOnUse">
<stop offset="0.0104167" stop-color="#54C410" stop-opacity="0.2"/>
<stop offset="0.484375" stop-color="#00EBC1" stop-opacity="0.47"/>
</linearGradient>
<linearGradient id="paint41_linear_330_2954" x1="179.055" y1="55.9046" x2="193.921" y2="339.576" gradientUnits="userSpaceOnUse">
<stop offset="0.0104167" stop-color="#54C410" stop-opacity="0.2"/>
<stop offset="0.484375" stop-color="#00EBC1" stop-opacity="0.47"/>
</linearGradient>
<linearGradient id="paint42_linear_330_2954" x1="179.736" y1="57.6095" x2="194.603" y2="341.281" gradientUnits="userSpaceOnUse">
<stop offset="0.0104167" stop-color="#54C410" stop-opacity="0.2"/>
<stop offset="0.484375" stop-color="#00EBC1" stop-opacity="0.47"/>
</linearGradient>
<linearGradient id="paint43_linear_330_2954" x1="180.76" y1="59.3148" x2="195.626" y2="342.986" gradientUnits="userSpaceOnUse">
<stop offset="0.0104167" stop-color="#54C410" stop-opacity="0.2"/>
<stop offset="0.484375" stop-color="#00EBC1" stop-opacity="0.47"/>
</linearGradient>
</defs>
</svg>
